<svg xmlns="http://www.w3.org/2000/svg" width="26.217" height="24" viewBox="0 0 26.217 24">
  <g id="risk" transform="translate(-816 -408.766)">
    <path id="Path_1047" data-name="Path 1047" d="M816,431.623q1.334-2.427,2.669-4.854,4.783-8.692,9.566-17.383c.312-.567.811-.778,1.283-.5a1.4,1.4,0,0,1,.469.517q2.989,5.4,5.96,10.816l6.066,11.021a1.07,1.07,0,0,1,.175.827.9.9,0,0,1-.827.684c-.094.006-.187.005-.281.005q-11.967,0-23.936.006a1.052,1.052,0,0,1-1.145-.732Zm2.453-.69h21.318l-10.659-19.371C825.543,418.045,822.006,424.473,818.453,430.932Z" transform="translate(0 0)" fill="#ff5252"/>
    <path id="Path_1048" data-name="Path 1048" d="M947.684,502.712c0-1.109-.006-2.219,0-3.328a1.043,1.043,0,0,1,.613-.963,1.084,1.084,0,0,1,1.142.065,1.142,1.142,0,0,1,.507,1.03c0,1.289,0,2.577,0,3.866,0,.879.006,1.758-.006,2.636a1.055,1.055,0,0,1-.672,1,1.077,1.077,0,0,1-1.2-.177,1.141,1.141,0,0,1-.4-.931c0-1.067,0-2.134,0-3.2C947.683,502.712,947.683,502.712,947.684,502.712Z" transform="translate(-119.705 -81.382)" fill="#ff5252"/>
    <path id="Path_1049" data-name="Path 1049" d="M949.442,609.632a1.191,1.191,0,1,1-1.2-1.2A1.193,1.193,0,0,1,949.442,609.632Z" transform="translate(-119.141 -181.506)" fill="#ff5252"/>
  </g>
</svg>
