<?xml version="1.0" encoding="utf-8"?>
<!-- Generator: Adobe Illustrator 16.0.0, SVG Export Plug-In . SVG Version: 6.00 Build 0)  -->
<!DOCTYPE svg PUBLIC "-//W3C//DTD SVG 1.1//EN" "http://www.w3.org/Graphics/SVG/1.1/DTD/svg11.dtd">
<svg version="1.1" id="Layer_1" xmlns="http://www.w3.org/2000/svg" xmlns:xlink="http://www.w3.org/1999/xlink" x="0px" y="0px"
	 width="11.845px" height="19px" viewBox="0 0 11.845 19" enable-background="new 0 0 11.845 19" xml:space="preserve">
<g id="upload" transform="translate(311.454 1102)">
	<g id="Group_9415" transform="translate(64.546 0)">
		<g id="Group_9414" transform="translate(0 0)">
			<path id="Path_1170" fill="#010101" d="M-364.286-1096.483l-5.497-5.381c-0.132-0.16-0.369-0.182-0.529-0.049
				c-0.018,0.015-0.035,0.032-0.049,0.049l-5.5,5.382c-0.176,0.163-0.186,0.438-0.023,0.613c0.081,0.087,0.193,0.137,0.312,0.139
				h2.6v6.973c0.05,0.292,0.286,0.516,0.579,0.55h4.628c0.231,0,0.289-0.289,0.289-0.55v-6.973h2.894
				c0.239-0.003,0.431-0.201,0.428-0.44c-0.002-0.118-0.052-0.231-0.139-0.312L-364.286-1096.483z"/>
			<path id="Path_1171" fill="#010101" d="M-367.757-1087.34h-4.629c-0.24,0-0.434,0.194-0.434,0.434
				c0,0.24,0.194,0.434,0.434,0.434h4.629c0.239,0,0.434-0.193,0.434-0.434C-367.324-1087.146-367.518-1087.34-367.757-1087.34
				L-367.757-1087.34z"/>
			<path id="Path_1172" fill="#010101" d="M-367.757-1085.604h-4.629c-0.24,0-0.434,0.193-0.434,0.434s0.194,0.434,0.434,0.434
				h4.629c0.239,0,0.434-0.193,0.434-0.434S-367.518-1085.604-367.757-1085.604L-367.757-1085.604z"/>
			<path id="Path_1173" fill="#010101" d="M-367.757-1083.868h-4.629c-0.24,0-0.434,0.194-0.434,0.435
				c0,0.239,0.194,0.434,0.434,0.434h4.629c0.239,0,0.434-0.194,0.434-0.434C-367.324-1083.674-367.518-1083.868-367.757-1083.868
				L-367.757-1083.868z"/>
		</g>
	</g>
</g>
</svg>
