<svg xmlns="http://www.w3.org/2000/svg" width="9.13" height="9" viewBox="0 0 9.13 9">
  <g id="Group_9071" data-name="Group 9071" transform="translate(-340.548 -157)">
    <g id="arrow-point-to-right" transform="translate(247.41 157)">
      <path id="Path_860" data-name="Path 860" d="M102.084,4.945l-3.87,3.87a.63.63,0,0,1-.891-.891L100.747,4.5,97.323,1.076a.63.63,0,1,1,.891-.891l3.87,3.87a.63.63,0,0,1,0,.891Z" transform="translate(0)"/>
    </g>
    <g id="arrow-point-to-right-2" data-name="arrow-point-to-right" transform="translate(243.41 157)">
      <path id="Path_860-2" data-name="Path 860" d="M102.084,4.945l-3.87,3.87a.63.63,0,0,1-.891-.891L100.747,4.5,97.323,1.076a.63.63,0,1,1,.891-.891l3.87,3.87a.63.63,0,0,1,0,.891Z" transform="translate(0)"/>
    </g>
  </g>
</svg>
