<svg xmlns="http://www.w3.org/2000/svg" width="18.052" height="18" viewBox="0 0 18.052 18">
  <path id="Shape_4" data-name="Shape 4" d="M1173.586,42.066a.735.735,0,0,1-.206-.656c.022-.131.529-3.408-3.45-7.366a5.927,5.927,0,0,1,.18-7.98,5.579,5.579,0,0,1,3.978-1.564,5.79,5.79,0,0,1,4.024,1.543,11.158,11.158,0,0,0,7.435,3.335.868.868,0,0,1,.576.217c1.146,1.14-.341,4.6-2.066,7.11a2.591,2.591,0,0,1-.554,2.834,2.647,2.647,0,0,1-2.81.563c-1.973,1.354-4.408,2.4-5.853,2.4A1.7,1.7,0,0,1,1173.586,42.066Zm-2.425-14.957A4.437,4.437,0,0,0,1170.98,33c3.537,3.519,3.93,6.691,3.912,8.021,1.422-.039,4.747-1.636,6.546-3.426,2.074-2.065,3.641-5.626,3.636-6.761a12.912,12.912,0,0,1-8.013-3.746,4.275,4.275,0,0,0-2.974-1.11A4.1,4.1,0,0,0,1171.161,27.109Z" transform="translate(-1168.474 -24.5)" fill="#333"/>
</svg>
