<svg xmlns="http://www.w3.org/2000/svg" width="17.832" height="18.243" viewBox="0 0 17.832 18.243">
  <g id="calendar" transform="translate(-4.864)" opacity="0.45">
    <g id="Group_8856" data-name="Group 8856" transform="translate(4.864)">
      <path id="Path_897" data-name="Path 897" d="M22.047,1.515H18.455V0h-1.3V1.515H10.4V0h-1.3V1.515H5.513a.638.638,0,0,0-.649.649v15.43a.638.638,0,0,0,.649.649H22.047a.638.638,0,0,0,.649-.649V2.164A.651.651,0,0,0,22.047,1.515ZM9.3,14.911a1.277,1.277,0,1,1,1.277-1.277A1.265,1.265,0,0,1,9.3,14.911Zm0-3.809a1.277,1.277,0,1,1,1.277-1.277A1.265,1.265,0,0,1,9.3,11.1Zm4.48,3.809a1.277,1.277,0,1,1,1.277-1.277A1.279,1.279,0,0,1,13.78,14.911Zm0-3.809a1.277,1.277,0,1,1,1.277-1.277A1.279,1.279,0,0,1,13.78,11.1Zm4.48,3.809a1.277,1.277,0,1,1,1.277-1.277A1.265,1.265,0,0,1,18.26,14.911Zm0-3.809a1.277,1.277,0,1,1,1.277-1.277A1.265,1.265,0,0,1,18.26,11.1ZM21.4,5.107v.26H6.162V2.813H9.106V4.372h1.3V2.813h6.752V4.372h1.3V2.813H21.4Z" transform="translate(-4.864)"/>
    </g>
  </g>
</svg>
