<svg xmlns="http://www.w3.org/2000/svg" width="22.009" height="22.009" viewBox="0 0 22.009 22.009">
  <g id="qualification" transform="translate(0)">
    <path id="Path_1172" data-name="Path 1172" d="M768,363.518V348h22.008v15.518c-.086,0-.171.01-.257.01h-4.3c-.723,0-1.447,0-2.17,0a.3.3,0,0,0-.229.095,4.725,4.725,0,0,1-1.48,1.692c.133.725.263,1.442.4,2.158q.235,1.265.472,2.53h-.086a.41.41,0,0,0-.083-.057c-1.053-.387-2.105-.775-3.161-1.154a.457.457,0,0,0-.283.021c-.988.357-1.973.722-2.958,1.083-.076.028-.154.051-.243.08a.545.545,0,0,1,0-.091c.23-1.491.459-2.982.7-4.472a.243.243,0,0,0-.106-.269,4.256,4.256,0,0,1-1.2-1.436.3.3,0,0,0-.312-.188q-3.21.009-6.42,0C768.186,363.528,768.093,363.521,768,363.518ZM788.7,349.3H769.31v12.917H774.5a4.549,4.549,0,1,1,9.015,0h5.19C788.7,357.906,788.7,353.612,788.7,349.3Zm-9.713,15.518a3.233,3.233,0,1,0-3.216-3.252A3.227,3.227,0,0,0,778.99,364.822Zm1.76,3.187c-.131-.719-.255-1.4-.382-2.095a4.675,4.675,0,0,1-2.815-.027l-.329,2.138c.546-.2,1.051-.375,1.55-.57a.6.6,0,0,1,.471,0C779.729,367.645,780.219,367.816,780.75,368.009Z" transform="translate(-768 -348)"/>
    <path id="Path_1173" data-name="Path 1173" d="M1005.718,625.25q-.236-1.266-.472-2.53c-.133-.716-.263-1.433-.4-2.158a4.724,4.724,0,0,0,1.48-1.692.3.3,0,0,1,.229-.095c.723-.007,1.447,0,2.17,0h4.3c.086,0,.171-.007.257-.01v6.491Z" transform="translate(-991.275 -603.242)" fill="#fff"/>
    <path id="Path_1174" data-name="Path 1174" d="M869.91,462.5V461.23h10.322V462.5Z" transform="translate(-864.069 -454.74)"/>
    <path id="Path_1175" data-name="Path 1175" d="M910.347,415.94v1.266H903.91V415.94Z" transform="translate(-896.12 -412.046)"/>
    <path id="Path_1176" data-name="Path 1176" d="M813.33,395.95v-2.56H815.9v1.276h-1.276v1.284Z" transform="translate(-810.732 -390.789)"/>
    <path id="Path_1177" data-name="Path 1177" d="M1063.105,395.948v-1.277h-1.286V393.39h2.565v2.559Z" transform="translate(-1044.98 -390.789)"/>
    <path id="Path_1178" data-name="Path 1178" d="M814.659,528.92v1.271h1.286v1.29H813.38v-2.56Z" transform="translate(-810.779 -518.551)"/>
    <path id="Path_1179" data-name="Path 1179" d="M1064.47,531.577h-2.56v-1.288h1.274V529.01h1.287Z" transform="translate(-1045.065 -518.636)"/>
    <path id="Path_1180" data-name="Path 1180" d="M928.127,555.127a1.939,1.939,0,1,1,1.948-1.926A1.932,1.932,0,0,1,928.127,555.127Zm.008-1.294a.643.643,0,0,0,.647-.636.645.645,0,1,0-1.29,0A.643.643,0,0,0,928.135,553.833Z" transform="translate(-917.133 -539.601)"/>
  </g>
</svg>
