<svg xmlns="http://www.w3.org/2000/svg" width="18.455" height="16.25" viewBox="0 0 18.455 16.25">
  <g id="Speech_Bubble_48_" transform="translate(0 -30.536)">
    <g id="Group_167" data-name="Group 167" transform="translate(0 30.536)">
      <path id="Path_29" data-name="Path 29" d="M2.686,46.786H1.378l.925-.925A3.129,3.129,0,0,0,3.2,44.011,7.047,7.047,0,0,1,.435,40.745a6.4,6.4,0,0,1-.185-4.1,8.023,8.023,0,0,1,3.074-4.292,10.045,10.045,0,0,1,5.934-1.82,9.948,9.948,0,0,1,6.859,2.338,7.018,7.018,0,0,1,1.75,8.04,7.219,7.219,0,0,1-1.755,2.442A9.925,9.925,0,0,1,9.258,45.7a12.473,12.473,0,0,1-3.1-.395,4.846,4.846,0,0,1-3.47,1.478ZM9.258,31.619c-4.479,0-7.228,2.671-7.964,5.319A5.454,5.454,0,0,0,4.04,43.261l.27.163-.008.315a4.266,4.266,0,0,1-.431,1.768,3.837,3.837,0,0,0,1.7-1.161l.229-.271.34.1a11.2,11.2,0,0,0,3.123.442c5.574,0,8.113-3.375,8.113-6.512a5.957,5.957,0,0,0-1.985-4.434,8.894,8.894,0,0,0-6.128-2.054Z" transform="translate(0 -30.536)"/>
    </g>
  </g>
</svg>
