<svg xmlns="http://www.w3.org/2000/svg" width="130.016" height="113.236" viewBox="0 0 130.016 113.236">
  <g id="checkbook" transform="translate(-768 -372.738)">
    <path id="Path_1258" data-name="Path 1258" d="M768,416.155a20.879,20.879,0,0,1,1.706-3.481,7.25,7.25,0,0,1,6.186-2.892q12.372.02,24.744,0,22.336,0,44.669.017a2.7,2.7,0,0,0,2.116-.83q11.585-11.656,23.223-23.257c.264-.264.508-.552.853-.928-.735-.7-1.385-1.425-2.133-2.028-1.148-.921-2.4-.745-3.609.471q-5.231,5.267-10.438,10.56c-1.574,1.595-3.135,3.206-4.727,4.784-1.32,1.314-2.8,1.392-3.9.251-1.053-1.09-.968-2.533.291-3.816,5.1-5.187,10.195-10.384,15.341-15.527a7.521,7.521,0,0,1,11-.017c.572.555,1.05,1.205,1.683,1.943,2.035-2.048,3.84-3.941,5.722-5.753a10.066,10.066,0,0,1,13.811-.345,10.186,10.186,0,0,1,3.213,5.492c.064.274.18.538.271.809v2.539c-.623,3.43-2.817,5.817-5.207,8.156-5.5,5.387-10.906,10.872-16.35,16.32-.311.311-.6.647-1.056,1.158h1.513c4.567,0,9.138-.054,13.706.034a7.224,7.224,0,0,1,6.694,4.449c.291.6.471,1.256.7,1.886v63.491c-1.974,5.062-3.85,6.328-9.352,6.328H775.828a7.171,7.171,0,0,1-6-2.759A21.464,21.464,0,0,1,768,479.646Zm73.449-1.226c-.582-.034-.867-.061-1.148-.061q-32.057-.005-64.117,0c-2.2,0-3.1.9-3.1,3.071q-.005,29.9,0,59.807c0,2.258.9,3.149,3.166,3.149q56.755.005,113.506,0c2.272,0,3.183-.894,3.183-3.135q.005-29.9,0-59.807c0-2.18-.907-3.071-3.095-3.074-6.135,0-12.274.017-18.409-.02a2.676,2.676,0,0,0-2.1.87q-16.719,16.77-33.5,33.479a7.506,7.506,0,0,1-2.871,1.71c-4.293,1.412-8.63,2.692-12.947,4.026a8.529,8.529,0,0,0-.836.345c.02.074.037.149.058.227h59.875a13.685,13.685,0,0,1,1.395.02,2.522,2.522,0,0,1,2.255,2.228,2.453,2.453,0,0,1-1.73,2.641,6.159,6.159,0,0,1-1.75.183q-13.586.015-27.171.007-19.36,0-38.724.01c-1.324,0-2.445-.274-3.017-1.612-.586-1.368.078-2.343,1.016-3.254,1.124-1.09,2.262-2.174,3.311-3.332a5.4,5.4,0,0,0,1.148-1.9c1.371-4.307,2.631-8.651,4.026-12.951a7.023,7.023,0,0,1,1.541-2.543c1.906-2.038,3.921-3.978,5.9-5.952C831.948,424.42,836.587,419.788,841.449,414.929Zm-4.578,25.854q22.611-22.616,45.136-45.143c-2.289-2.292-4.639-4.645-6.877-6.89q-22.524,22.519-45.147,45.14C832.232,436.141,834.562,438.471,836.871,440.783ZM885.9,391.73c1.9-1.832,3.978-3.636,5.817-5.658a5.027,5.027,0,0,0-7.022-7.117c-2.052,1.855-3.887,3.951-5.719,5.841C881.279,387.108,883.633,389.461,885.9,391.73ZM825.86,437.384c-2.387,3.5-2.685,7.7-4.307,11.668.63-.152.951-.21,1.263-.3,2.705-.823,5.427-1.6,8.106-2.506a12.831,12.831,0,0,0,2.367-1.4C830.78,442.32,828.457,439.991,825.86,437.384Z" transform="translate(0)" fill="#c5c5c5"/>
    <path id="Path_1260" data-name="Path 1260" d="M838.572,546.836c1.314.914,2.516,1.625,3.569,2.519a2.418,2.418,0,0,1,.3,3.6,2.59,2.59,0,0,1-3.643.186,8.176,8.176,0,0,0-2.048-1.209,2.5,2.5,0,0,0-3.2,1.879,2.544,2.544,0,0,0,2.184,3.017,17.97,17.97,0,0,1,2.5.389,7.485,7.485,0,0,1,5.38,6.552,7.219,7.219,0,0,1-3.955,7.354,1.734,1.734,0,0,0-1.09,1.947,10.287,10.287,0,0,1-.007,1.649A2.492,2.492,0,0,1,836,577.16a2.3,2.3,0,0,1-2.438-2.377c.264-2.231-.46-3.582-2.543-4.446a6.357,6.357,0,0,1-2.045-1.859,2.471,2.471,0,0,1,.152-3.623,2.505,2.505,0,0,1,3.538.183,14.182,14.182,0,0,0,1.507,1.351,2.746,2.746,0,0,0,3.416.085,2.351,2.351,0,0,0,.853-2.715,2.7,2.7,0,0,0-2.739-1.839,7.537,7.537,0,0,1-7.256-8.008,7.261,7.261,0,0,1,4.185-6.352,1.29,1.29,0,0,0,.88-1.432,12.685,12.685,0,0,1,0-2.028,2.578,2.578,0,0,1,2.567-2.461,2.541,2.541,0,0,1,2.472,2.424C838.619,545.059,838.572,546.074,838.572,546.836Z" transform="translate(-39.856 -111.714)" fill="#c5c5c5"/>
    <path id="Path_1261" data-name="Path 1261" d="M955.287,647.168h14.325a9.268,9.268,0,0,1,1.266.037,2.515,2.515,0,0,1,2.167,2.3,2.43,2.43,0,0,1-1.69,2.539,5.509,5.509,0,0,1-1.619.19q-14.454.015-28.9.007a8.39,8.39,0,0,1-1.012-.02,2.575,2.575,0,0,1-2.3-2.587,2.511,2.511,0,0,1,2.428-2.448c.674-.044,1.351-.02,2.028-.02Z" transform="translate(-112.122 -181.509)" fill="#c5c5c5"/>
    <path id="Path_1262" data-name="Path 1262" d="M1062.588,649.792a2.53,2.53,0,1,1-5.058-.1,2.53,2.53,0,0,1,5.058.1Z" transform="translate(-191.499 -181.549)" fill="#c5c5c5"/>
  </g>
</svg>
