<svg xmlns="http://www.w3.org/2000/svg" width="29.712" height="23.171" viewBox="0 0 29.712 23.171">
  <g id="_2216821_consultation_doctor_doctor_consultation_healthcare_patient_icon" data-name="2216821_consultation_doctor_doctor consultation_healthcare_patient_icon" transform="translate(-1.59 -8.3)">
    <path id="Path_1231" data-name="Path 1231" d="M37.683,42.62h1.268v1.317a.634.634,0,1,0,1.268,0V42.62h1.317a.634.634,0,0,0,0-1.268H40.22V40.034a.646.646,0,0,0-.634-.634.69.69,0,0,0-.634.683V41.4H37.634a.612.612,0,1,0,.049,1.22Z" transform="translate(-18.136 -15.929)" fill="#539dfe"/>
    <path id="Path_1232" data-name="Path 1232" d="M25.661,44.464H38.2A1.468,1.468,0,0,0,39.661,43V36.268h1.512a.634.634,0,1,0,0-1.268H22.734a.634.634,0,1,0,0,1.268h1.512V43A1.4,1.4,0,0,0,25.661,44.464Zm-.244-8.2H38.442V43a.23.23,0,0,1-.244.244H25.661A.23.23,0,0,1,25.417,43Z" transform="translate(-10.505 -13.675)" fill="#539dfe"/>
    <path id="Path_1233" data-name="Path 1233" d="M36.645,23.437a2.7,2.7,0,0,0-.927,1.024,2.167,2.167,0,0,0-.146,1.22V26.8a.6.6,0,0,0,.634.585h0a.6.6,0,0,0,.585-.634V25.583a2.791,2.791,0,0,1,.049-.683,2.208,2.208,0,0,1,.585-.585l.439-.293.683-.39a1.223,1.223,0,0,0,.341-.2.048.048,0,0,0,.049-.049l.439.439c.341.293.634.585.976.878l.732.683.39-.39c.488-.439.927-.829,1.366-1.268a2.254,2.254,0,0,0,.341-.341l.049.049c.1.049.244.1.341.146l.146.049c.146.049.244.146.293.146l.39.244c.1.049.2.146.293.2a1.577,1.577,0,0,1,.585.537,2.791,2.791,0,0,1,.049.683v1.122a.639.639,0,0,0,.585.634h0a.678.678,0,0,0,.634-.585V25.534a2.706,2.706,0,0,0-.146-1.22,3.346,3.346,0,0,0-1.317-1.268l-.439-.244c-.1-.049-.244-.146-.341-.2l-.146-.049c-.146-.049-.244-.146-.39-.2l-.049-.049a.968.968,0,0,0-1.22.1l-.1.1-.39.39c-.293.293-.634.585-.927.878-.293-.244-.585-.537-.878-.829a3.156,3.156,0,0,0-.439-.39l-.146-.146a.794.794,0,0,0-.927-.2c-.1.049-.244.1-.341.146-.146.049-.244.146-.39.2l-.78.488C36.986,23.193,36.84,23.29,36.645,23.437Z" transform="translate(-17.391 -7.088)" fill="#539dfe"/>
    <path id="Path_1234" data-name="Path 1234" d="M45.173,12.934l-.049.244a.639.639,0,0,0,.39.78c.049,0,.1.049.2.049a.683.683,0,0,0,.585-.439l.1-.244c.049-.2.146-.39.2-.634a5.282,5.282,0,0,0,.146-1.707A2.8,2.8,0,0,0,44.1,8.3h-.293a3.419,3.419,0,0,0-2.39.732,3.21,3.21,0,0,0-.927,2.1,5.887,5.887,0,0,0,.439,2.439.648.648,0,0,0,.488.39.607.607,0,0,0,.683-.537.723.723,0,0,0-.049-.341,4.249,4.249,0,0,1-.341-1.9,2.028,2.028,0,0,1,.537-1.268,2.163,2.163,0,0,1,1.512-.39H44a1.686,1.686,0,0,1,1.561,1.61,3,3,0,0,1-.146,1.268A5.721,5.721,0,0,0,45.173,12.934Z" transform="translate(-19.92)" fill="#539dfe"/>
    <path id="Path_1235" data-name="Path 1235" d="M5.239,16.278a2.446,2.446,0,0,0,2.439-2.439A2.478,2.478,0,0,0,5.239,11.4a2.439,2.439,0,0,0,0,4.878Zm0-3.707a1.22,1.22,0,1,1-1.22,1.22A1.208,1.208,0,0,1,5.239,12.571Z" transform="translate(-0.62 -1.588)" fill="#539dfe"/>
    <path id="Path_1236" data-name="Path 1236" d="M15.074,42.494c-.293,1.22-.634,2.439-.927,3.707a.578.578,0,0,0,.439.732h.146a.586.586,0,0,0,.585-.439c.293-1.22.634-2.439.927-3.707l.1-.293a3.489,3.489,0,0,0-.049-2.878,1.609,1.609,0,0,0-1.415-.732c-.2,0-2.293-.2-3.073-.293-.293-.049-.537-.049-.829-.1a.614.614,0,1,0-.146,1.22c.244.049.537.049.78.1.829.1,2.927.293,3.171.293.341,0,.439.1.439.1a2.87,2.87,0,0,1-.1,2C15.123,42.25,15.074,42.4,15.074,42.494Z" transform="translate(-4.454 -15.462)" fill="#539dfe"/>
    <path id="Path_1237" data-name="Path 1237" d="M1.6,26.584a12.743,12.743,0,0,0,.683,4.146c.146.537.293,1.122.439,1.707a3.494,3.494,0,0,0,2.049,2.537,5.821,5.821,0,0,0,1.8.293c.537,0,1.073-.049,1.61-.1l-.146-1.22a7.064,7.064,0,0,1-2.878-.1A2.47,2.47,0,0,1,3.839,32.1c-.146-.537-.293-1.122-.439-1.659a14.448,14.448,0,0,1-.634-3.8c0-.78.146-1.073.488-1.268a1.13,1.13,0,0,1,1.171.2,1.434,1.434,0,0,1,.488.585c.049.1.049.146.1.244.049.2.146.39.2.585a.44.44,0,0,0,.049.244,1.891,1.891,0,0,0,.829,1.707h.049c.341.2,2.878,1.512,2.878,1.512A.611.611,0,0,0,9.6,29.364C7.449,28.242,6.863,27.9,6.668,27.852h0c-.146-.049-.2-.488-.2-.732a.952.952,0,0,0-.049-.341,4.12,4.12,0,0,0-.244-.829,2.378,2.378,0,0,1-.146-.341,3.508,3.508,0,0,0-.878-1.024,2.379,2.379,0,0,0-2.39-.293A2.208,2.208,0,0,0,1.6,26.584Z" transform="translate(0 -8.088)" fill="#539dfe"/>
  </g>
</svg>
