<svg xmlns="http://www.w3.org/2000/svg" width="18.082" height="18.072" viewBox="0 0 18.082 18.072">
  <g id="clock" transform="translate(0 -0.168)">
    <g id="Group_9366" data-name="Group 9366" transform="translate(0 0.168)">
      <path id="Path_1110" data-name="Path 1110" d="M17.361,5.685A8.859,8.859,0,0,0,12.546.89,8.887,8.887,0,0,0,9.026.168,8.8,8.8,0,0,0,5.517.89a8.887,8.887,0,0,0-4.8,4.795,9.033,9.033,0,0,0,0,7.029,8.906,8.906,0,0,0,4.8,4.8,8.8,8.8,0,0,0,3.51.722,8.89,8.89,0,0,0,3.52-.722,8.878,8.878,0,0,0,4.815-4.8,8.919,8.919,0,0,0,0-7.029Zm-1.443,7.5a7.932,7.932,0,0,1-2.907,2.9,7.787,7.787,0,0,1-3.984,1.068,7.656,7.656,0,0,1-3.085-.633,8.084,8.084,0,0,1-2.531-1.69,8.035,8.035,0,0,1-1.69-2.541A7.784,7.784,0,0,1,1.1,9.194,7.772,7.772,0,0,1,2.156,5.22a7.936,7.936,0,0,1,2.9-2.9A7.727,7.727,0,0,1,9.026,1.255a7.787,7.787,0,0,1,3.984,1.068,7.956,7.956,0,0,1,2.907,2.9,7.727,7.727,0,0,1,1.068,3.974A7.8,7.8,0,0,1,15.917,13.189Z" transform="translate(0 -0.168)" fill="#333"/>
      <path id="Path_1111" data-name="Path 1111" d="M288.21,116.6v-5.121a.57.57,0,0,0-.573-.554.557.557,0,0,0-.544.554v5.2a.452.452,0,0,1,.02.079.517.517,0,0,0,.148.445l2.956,2.956a.562.562,0,0,0,.761,0,.533.533,0,0,0,0-.771Z" transform="translate(-278.61 -107.649)" fill="#333"/>
    </g>
  </g>
</svg>
