<svg id="cancel" xmlns="http://www.w3.org/2000/svg" width="24" height="24" viewBox="0 0 24 24">
  <g id="Group_8849" data-name="Group 8849">
    <path id="Path_888" data-name="Path 888" d="M20.485,3.515a12,12,0,1,0-16.97,16.97,12,12,0,1,0,16.97-16.97ZM19.52,19.52A10.635,10.635,0,0,1,4.48,4.48,10.635,10.635,0,1,1,19.52,19.52Z" fill="#fff"/>
    <path id="Path_889" data-name="Path 889" d="M139.7,129.126a.68.68,0,0,0-.965,0l-4.323,4.323-4.323-4.323a.682.682,0,0,0-.965.965l4.323,4.323-4.323,4.323a.684.684,0,0,0,.48,1.167.665.665,0,0,0,.48-.2l4.323-4.323,4.323,4.323a.686.686,0,0,0,.48.2.657.657,0,0,0,.48-.2.68.68,0,0,0,0-.965l-4.313-4.323,4.323-4.323A.68.68,0,0,0,139.7,129.126Z" transform="translate(-122.414 -122.414)" fill="#fff"/>
  </g>
</svg>
