<svg id="database" xmlns="http://www.w3.org/2000/svg" width="15.89" height="18.071" viewBox="0 0 15.89 18.071">
  <path id="Path_1166" data-name="Path 1166" d="M743.664,301.971h-1.835c-.3-.021-.607-.046-.914-.067a16.291,16.291,0,0,1-3.942-.713,4.651,4.651,0,0,1-1.588-.815,1.521,1.521,0,0,1-.586-1.242q.016-6.188,0-12.379a1.546,1.546,0,0,1,.614-1.281,4.579,4.579,0,0,1,1.38-.727,15.987,15.987,0,0,1,4.072-.776c.311-.025.617-.046.928-.071H743.7a1.189,1.189,0,0,0,.12.025c.628.053,1.256.085,1.881.155a13,13,0,0,1,3.1.7,4.1,4.1,0,0,1,1.426.822,1.407,1.407,0,0,1,.462,1.066q-.005,6.272,0,12.545a1.372,1.372,0,0,1-.413,1,3.8,3.8,0,0,1-1.475.872,15.427,15.427,0,0,1-4.192.812C744.3,301.925,743.982,301.946,743.664,301.971Zm-7.8-3.374a4.58,4.58,0,0,1,0,.494.513.513,0,0,0,.293.554,9.1,9.1,0,0,0,1.129.526,14.921,14.921,0,0,0,4.016.7,22.96,22.96,0,0,0,4.591-.169,10.569,10.569,0,0,0,2.791-.709,5.438,5.438,0,0,0,.759-.441.441.441,0,0,0,.194-.409c-.011-.582,0-1.165,0-1.747v-.914c-.049.021-.081.032-.109.046-.469.18-.932.4-1.415.533a19.042,19.042,0,0,1-4.722.628,23.773,23.773,0,0,1-3.681-.176,13.47,13.47,0,0,1-2.887-.628c-.318-.113-.628-.258-.953-.392,0,.18.011.356,0,.529a.4.4,0,0,0,.183.392,4.6,4.6,0,0,0,.628.385,11.842,11.842,0,0,0,3.448.815c.349.042.7.067,1.066.1-.011.18-.021.349-.032.515s-.025.349-.035.536A14.159,14.159,0,0,1,735.866,298.6Zm5.258-3.059a14.172,14.172,0,0,1-5.258-1.175,5.26,5.26,0,0,1,0,.529.469.469,0,0,0,.25.483,6.1,6.1,0,0,0,.829.42,14.966,14.966,0,0,0,4.439.808,24.007,24.007,0,0,0,3.7-.071,13.285,13.285,0,0,0,3.19-.635,8.87,8.87,0,0,0,1.112-.526.482.482,0,0,0,.251-.483c-.014-.812,0-1.623,0-2.435v-.194c-.3.127-.572.258-.857.36a15.428,15.428,0,0,1-4.058.769,24.261,24.261,0,0,1-5.7-.2,10.025,10.025,0,0,1-3.095-.914c-.014-.007-.032,0-.056,0,0,.183.011.367,0,.55a.409.409,0,0,0,.191.392,4.549,4.549,0,0,0,.607.356,11.855,11.855,0,0,0,3.465.822c.349.039.7.067,1.066.1C741.169,294.832,741.148,295.171,741.124,295.538Zm-5.258-5.41a5.051,5.051,0,0,1,0,.519.483.483,0,0,0,.258.5,5.7,5.7,0,0,0,.815.413,14.972,14.972,0,0,0,4.457.812,24.24,24.24,0,0,0,3.684-.071,13.285,13.285,0,0,0,3.19-.635,8.611,8.611,0,0,0,1.126-.533.473.473,0,0,0,.247-.469c-.011-.819,0-1.634,0-2.453v-.169c-.445.166-.865.349-1.3.483a18.54,18.54,0,0,1-4.979.7,24.208,24.208,0,0,1-3.645-.176,13.257,13.257,0,0,1-2.887-.628c-.318-.113-.628-.258-.956-.392,0,.184.011.363,0,.543a.414.414,0,0,0,.2.406,4.379,4.379,0,0,0,.607.353,11.74,11.74,0,0,0,3.465.819c.349.039.7.067,1.059.1-.011.184-.021.356-.032.526s-.025.346-.035.529A14.335,14.335,0,0,1,735.866,290.128Zm6.856-1.951a20.622,20.622,0,0,0,4.722-.5,5.6,5.6,0,0,0,1.831-.706c.473-.318.483-.473,0-.769a5.908,5.908,0,0,0-1.246-.561,14.824,14.824,0,0,0-3.6-.621,21.95,21.95,0,0,0-5.688.3,8.6,8.6,0,0,0-2.163.67,2.8,2.8,0,0,0-.572.374c-.187.152-.184.286,0,.441a2.292,2.292,0,0,0,.448.307,7.362,7.362,0,0,0,1.761.6A20.4,20.4,0,0,0,742.722,288.177Z" transform="translate(-734.8 -283.9)" fill="#ec8a1b"/>
  <path id="Path_1167" data-name="Path 1167" d="M946.337,706.437H945.3V705.4h1.037Z" transform="translate(-937.872 -690.526)" fill="#ec8a1b"/>
  <path id="Path_1168" data-name="Path 1168" d="M946.337,586.437H945.3V585.4h1.037Z" transform="translate(-937.872 -574.761)" fill="#ec8a1b"/>
  <path id="Path_1169" data-name="Path 1169" d="M945.3,465.2h1.037v1.037H945.3Z" transform="translate(-937.872 -458.802)" fill="#ec8a1b"/>
</svg>
