<?xml version="1.0" encoding="utf-8"?>
<!-- Generator: Adobe Illustrator 16.0.0, SVG Export Plug-In . SVG Version: 6.00 Build 0)  -->
<!DOCTYPE svg PUBLIC "-//W3C//DTD SVG 1.1//EN" "http://www.w3.org/Graphics/SVG/1.1/DTD/svg11.dtd">
<svg version="1.1" id="Layer_1" xmlns="http://www.w3.org/2000/svg" xmlns:xlink="http://www.w3.org/1999/xlink" x="0px" y="0px"
	 width="15.293px" height="17.336px" viewBox="0 0 15.293 17.336" enable-background="new 0 0 15.293 17.336" xml:space="preserve">
<g id="notes_1_" transform="translate(-31.505 0.5)">
	<g id="Group_8482" transform="translate(32.005)">
		<g id="Group_8481">
			<g id="Path_827">
				<path fill="#333333" d="M9.189,3.223H3.063c-0.229-0.002-0.439-0.09-0.597-0.249c-0.159-0.16-0.245-0.372-0.243-0.597V1.7
					c0.003-0.837,0.685-1.518,1.52-1.519H4.69c0.143-0.174,0.317-0.323,0.514-0.436C5.973-0.696,7.012-0.49,7.562,0.181h0.947
					c0.837,0.001,1.52,0.683,1.521,1.518v0.684C10.029,2.846,9.652,3.223,9.189,3.223z M3.744,1.181
					c-0.286,0-0.52,0.234-0.521,0.521v0.521h5.806V1.7C9.028,1.415,8.794,1.182,8.507,1.181H7.011L6.867,0.93
					C6.641,0.537,6.098,0.385,5.702,0.613C5.57,0.688,5.46,0.798,5.385,0.929L5.241,1.181H3.744z"/>
			</g>
			<g id="Path_828">
				<path fill="#333333" d="M10.551,16.836c-2.34,0-4.244-1.904-4.244-4.244s1.904-4.243,4.244-4.243
					c2.338,0.002,4.242,1.905,4.244,4.243C14.795,14.932,12.891,16.836,10.551,16.836z M10.551,9.349
					c-1.789,0-3.244,1.455-3.244,3.243c0,1.789,1.455,3.244,3.244,3.244s3.244-1.455,3.244-3.244
					c-0.001-0.563-0.146-1.095-0.401-1.558c0.068,0.263,0.007,0.553-0.186,0.77l-2.744,2.744c-0.322,0.319-0.87,0.316-1.188,0.001
					l-1.362-1.361c-0.159-0.158-0.246-0.37-0.246-0.594c0-0.225,0.087-0.437,0.246-0.595c0.316-0.318,0.871-0.318,1.188,0
					l0.768,0.767l2.129-2.129c0.334-0.3,0.782-0.295,1.09-0.062C12.493,9.83,11.577,9.35,10.551,9.349z"/>
			</g>
			<g id="Path_829">
				<path fill="#333333" d="M7.227,16.836H1.016c-0.838-0.001-1.521-0.684-1.521-1.521V2.382c0.003-0.841,0.686-1.521,1.522-1.521
					h0.685c0.463,0,0.84,0.377,0.84,0.84v0.681c0,0.287,0.234,0.521,0.521,0.521h6.125c0.286,0,0.521-0.234,0.521-0.521V1.701
					c0-0.463,0.377-0.84,0.84-0.84h0.682c0.839,0.002,1.52,0.685,1.52,1.521v5.645c0.002,0.261-0.124,0.515-0.338,0.674
					c-0.141,0.106-0.319,0.167-0.5,0.167l-0.246-0.037c-1.35-0.403-2.876-0.027-3.887,0.976c-0.743,0.738-1.154,1.722-1.157,2.769
					c-0.003,1.04,0.396,2.019,1.124,2.76c0.054,0.042,0.102,0.091,0.144,0.145l0.72,0.725H8.042
					C7.95,16.567,7.619,16.836,7.227,16.836z M1.021,1.861c-0.291,0-0.525,0.233-0.526,0.52v12.934c0,0.287,0.234,0.521,0.522,0.521
					h5.638l-1.048-0.633h0.767c-0.492-0.78-0.754-1.687-0.751-2.632c0.004-1.314,0.52-2.549,1.452-3.475
					c1.218-1.21,3.015-1.702,4.676-1.28V2.382c0-0.287-0.233-0.52-0.521-0.521h-0.521v0.521c0,0.837-0.682,1.52-1.52,1.521H3.063
					c-0.838,0-1.52-0.683-1.521-1.521V1.861H1.021z"/>
			</g>
		</g>
	</g>
</g>
</svg>
