<svg xmlns="http://www.w3.org/2000/svg" width="18.913" height="24.607" viewBox="0 0 18.913 24.607">
  <g id="docs" transform="translate(-67.798)">
    <g id="Group_9519" data-name="Group 9519" transform="translate(67.798)">
      <g id="Group_9518" data-name="Group 9518">
        <path id="Path_1248" data-name="Path 1248" d="M86.562,6.616,79.794.142A.52.52,0,0,0,79.435,0H69.9a2.058,2.058,0,0,0-2.1,2.009V22.6a2.058,2.058,0,0,0,2.1,2.009H84.611a2.058,2.058,0,0,0,2.1-2.009V6.96A.476.476,0,0,0,86.562,6.616ZM79.943,1.66l5.032,4.813H81.027a1.062,1.062,0,0,1-1.083-1.036V1.66ZM85.694,22.6a1.062,1.062,0,0,1-1.083,1.036H69.9A1.062,1.062,0,0,1,68.815,22.6V2.009A1.062,1.062,0,0,1,69.9.973h9.028V5.437a2.058,2.058,0,0,0,2.1,2.009h4.668Z" transform="translate(-67.798 0)"/>
      </g>
    </g>
    <g id="Group_9521" data-name="Group 9521" transform="translate(71.988 12.249)">
      <g id="Group_9520" data-name="Group 9520" transform="translate(0)">
        <path id="Path_1249" data-name="Path 1249" d="M174.879,257.012h-9.362a.585.585,0,0,0,0,1.17h9.362a.585.585,0,0,0,0-1.17Z" transform="translate(-164.932 -257.012)"/>
      </g>
    </g>
    <g id="Group_9523" data-name="Group 9523" transform="translate(71.988 14.403)">
      <g id="Group_9522" data-name="Group 9522" transform="translate(0)">
        <path id="Path_1250" data-name="Path 1250" d="M174.879,302.208h-9.362a.585.585,0,0,0,0,1.17h9.362a.585.585,0,0,0,0-1.17Z" transform="translate(-164.932 -302.208)"/>
      </g>
    </g>
    <g id="Group_9525" data-name="Group 9525" transform="translate(71.988 16.557)">
      <g id="Group_9524" data-name="Group 9524" transform="translate(0)">
        <path id="Path_1251" data-name="Path 1251" d="M174.879,347.4h-9.362a.585.585,0,0,0,0,1.17h9.362a.585.585,0,0,0,0-1.17Z" transform="translate(-164.932 -347.404)"/>
      </g>
    </g>
    <g id="Group_9527" data-name="Group 9527" transform="translate(72.292 18.711)">
      <g id="Group_9526" data-name="Group 9526" transform="translate(0)">
        <path id="Path_1252" data-name="Path 1252" d="M171.836,392.6h-6.319a.585.585,0,0,0,0,1.17h6.319a.585.585,0,0,0,0-1.17Z" transform="translate(-164.932 -392.601)"/>
      </g>
    </g>
  </g>
</svg>
