<svg xmlns="http://www.w3.org/2000/svg" width="13.539" height="16.5" viewBox="0 0 13.539 16.5">
  <g id="Group_9504" data-name="Group 9504" transform="translate(-1243 -370)">
    <g id="document" transform="translate(1245.676 370)">
      <path id="Path_1238" data-name="Path 1238" d="M818.553,349a2.617,2.617,0,0,1,.357.254c.765.756,1.522,1.521,2.285,2.277a.707.707,0,0,1,.225.539q-.006,4.61,0,9.219a1.47,1.47,0,0,1-1.141,1.492,1.716,1.716,0,0,1-.387.042q-3.9,0-7.8,0a1.475,1.475,0,0,1-1.529-1.534q0-5.379,0-10.758a1.467,1.467,0,0,1,1.249-1.51.258.258,0,0,0,.049-.021Zm-.592,1c-.059,0-.1-.007-.147-.007h-5.683c-.408,0-.589.184-.589.6q0,5.324,0,10.648c0,.421.18.6.6.6h7.694c.418,0,.6-.181.6-.6q0-4.312,0-8.623v-.154h-1.906a.507.507,0,0,1-.565-.568q0-.87,0-1.741C817.961,350.1,817.961,350.051,817.961,350Zm1,.733v.727h.728Z" transform="translate(-810.557 -349)" fill="#3796d2"/>
    </g>
    <g id="document-2" data-name="document" transform="translate(1243 372.676)">
      <path id="Path_1238-2" data-name="Path 1238" d="M818.553,349a2.617,2.617,0,0,1,.357.254c.765.756,1.522,1.521,2.285,2.277a.707.707,0,0,1,.225.539q-.006,4.61,0,9.219a1.47,1.47,0,0,1-1.141,1.492,1.716,1.716,0,0,1-.387.042q-3.9,0-7.8,0a1.475,1.475,0,0,1-1.529-1.534q0-5.379,0-10.758a1.467,1.467,0,0,1,1.249-1.51.258.258,0,0,0,.049-.021Zm-.592,1c-.059,0-.1-.007-.147-.007h-5.683c-.408,0-.589.184-.589.6q0,5.324,0,10.648c0,.421.18.6.6.6h7.694c.418,0,.6-.181.6-.6q0-4.312,0-8.623v-.154h-1.906a.507.507,0,0,1-.565-.568q0-.87,0-1.741C817.961,350.1,817.961,350.051,817.961,350Zm1,.733v.727h.728Z" transform="translate(-810.557 -349)" fill="#3796d2"/>
    </g>
  </g>
</svg>
