<svg xmlns="http://www.w3.org/2000/svg" width="13.958" height="16.852" viewBox="0 0 13.958 16.852">
  <g id="document_1_" data-name="document(1)" transform="translate(-43.968)">
    <g id="Group_9273" data-name="Group 9273" transform="translate(49.268 3.555)">
      <g id="Group_9272" data-name="Group 9272">
        <path id="Path_954" data-name="Path 954" d="M210.321,108.016H205.65a.658.658,0,0,0,0,1.317h4.671a.658.658,0,0,0,0-1.317Z" transform="translate(-204.992 -108.016)"/>
      </g>
    </g>
    <g id="Group_9275" data-name="Group 9275" transform="translate(49.268 6.189)">
      <g id="Group_9274" data-name="Group 9274">
        <path id="Path_955" data-name="Path 955" d="M210.321,188.027H205.65a.658.658,0,0,0,0,1.317h4.671a.658.658,0,0,0,0-1.317Z" transform="translate(-204.992 -188.027)"/>
      </g>
    </g>
    <g id="Group_9277" data-name="Group 9277" transform="translate(49.268 8.822)">
      <g id="Group_9276" data-name="Group 9276">
        <path id="Path_956" data-name="Path 956" d="M207.658,268.039H205.65a.658.658,0,0,0,0,1.317h2.008a.658.658,0,0,0,0-1.317Z" transform="translate(-204.992 -268.039)"/>
      </g>
    </g>
    <g id="Group_9279" data-name="Group 9279" transform="translate(43.968)">
      <g id="Group_9278" data-name="Group 9278" transform="translate(0)">
        <path id="Path_957" data-name="Path 957" d="M57.267,8.954a.658.658,0,0,0,.658-.658V2.634A2.636,2.636,0,0,0,55.292,0H49.235A2.637,2.637,0,0,0,46.6,2.631a2.636,2.636,0,0,0-2.633,2.634v8.954A2.636,2.636,0,0,0,46.6,16.852h6.386a2.636,2.636,0,0,0,2.633-2.634V14.2a2.638,2.638,0,0,0,2.3-2.613.658.658,0,1,0-1.317,0A1.318,1.318,0,0,1,55.292,12.9H49.235a1.317,1.317,0,0,1-1.317-1.317V2.634a1.318,1.318,0,0,1,1.317-1.317h6.057a1.318,1.318,0,0,1,1.317,1.317V8.3A.658.658,0,0,0,57.267,8.954ZM49.235,14.22H54.3a1.318,1.318,0,0,1-1.317,1.316H46.6a1.318,1.318,0,0,1-1.317-1.317V5.265A1.318,1.318,0,0,1,46.6,3.948v7.639a2.633,2.633,0,0,0,2.633,2.633Z" transform="translate(-43.968)"/>
      </g>
    </g>
  </g>
</svg>
