<svg id="edit-tools" xmlns="http://www.w3.org/2000/svg" width="16.745" height="16.745" viewBox="0 0 16.745 16.745">
  <path id="Path_27" data-name="Path 27" d="M15.451,48.05a.418.418,0,0,0-.417.419v3.722a1.255,1.255,0,0,1-1.251,1.257H2.085A1.255,1.255,0,0,1,.834,52.191V41.268A1.256,1.256,0,0,1,2.085,40.01h3.7a.419.419,0,0,0,0-.838h-3.7A2.093,2.093,0,0,0,0,41.268V52.191a2.093,2.093,0,0,0,2.085,2.1h11.7a2.093,2.093,0,0,0,2.085-2.1V48.469A.418.418,0,0,0,15.451,48.05Zm0,0" transform="translate(0 -37.542)" fill="#539dfe"/>
  <path id="Path_28" data-name="Path 28" d="M119.438.813a1.886,1.886,0,0,0-2.667,0L109.3,8.289a.419.419,0,0,0-.108.184l-.983,3.549a.419.419,0,0,0,.516.516l3.549-.983a.419.419,0,0,0,.184-.108l7.475-7.476a1.888,1.888,0,0,0,0-2.667Zm-9.229,7.748,6.118-6.118L118.3,4.416l-6.118,6.118Zm-.394.791,1.576,1.577-2.181.6Zm9.523-5.973-.444.444L116.92,1.85l.445-.444a1.047,1.047,0,0,1,1.481,0l.492.492A1.049,1.049,0,0,1,119.337,3.379Zm0,0" transform="translate(-103.736 -0.261)" fill="#539dfe"/>
</svg>
