<svg xmlns="http://www.w3.org/2000/svg" width="11.542" height="11.54" viewBox="0 0 11.542 11.54">
  <g id="edit" transform="translate(0)">
    <path id="Path_882" data-name="Path 882" d="M10.795.775a2.546,2.546,0,0,0-3.6,0L.586,7.378a.33.33,0,0,0-.093.189L0,11.192A.329.329,0,0,0,.1,11.47a.336.336,0,0,0,.234.1.267.267,0,0,0,.044,0l2.184-.3a.332.332,0,0,0-.089-.659l-1.751.236L1.061,8.32l2.661,2.661a.336.336,0,0,0,.234.1.326.326,0,0,0,.234-.1l6.605-6.6a2.544,2.544,0,0,0,0-3.6ZM7.32,1.587,8.429,2.7,2.4,8.723,1.292,7.614ZM3.958,10.277,2.873,9.193,8.9,3.165,9.985,4.25Zm6.49-6.5L7.794,1.122a1.885,1.885,0,0,1,2.653,2.653Z" transform="translate(0 -0.028)" fill="#539dfe"/>
  </g>
</svg>
