<svg xmlns="http://www.w3.org/2000/svg" width="15.913" height="13.9" viewBox="0 0 15.913 13.9">
  <g id="email_1_" data-name="email(1)" transform="translate(0 -28.756)">
    <g id="Group_9528" data-name="Group 9528" transform="translate(0 28.756)">
      <g id="Group_9527" data-name="Group 9527" transform="translate(0 0)">
        <path id="Path_1174" data-name="Path 1174" d="M15.839,33.219l-2.3-1.628V29.213a.512.512,0,0,0-.439-.457H3a.512.512,0,0,0-.439.457v2.359l-2.4,1.646A.4.4,0,0,0,0,33.511V42.2a.53.53,0,0,0,.457.457h15.18c.2,0,.274-.238.274-.457V33.511C15.912,33.4,15.93,33.292,15.839,33.219Zm-2.3-.75,1.573,1.079-1.573,1.189ZM3.292,29.488H12.8V35.3L8.047,38.888,3.292,35.3V29.488Zm-.732,2.963v2.3L.988,33.548ZM.732,34.3l5.121,3.877L.732,41.632Zm.878,7.627,4.865-3.274,1.3.988a.439.439,0,0,0,.256.091c.073,0,.11-.037.183-.091L9.565,38.6l4.92,3.329ZM15.18,41.5l-5.011-3.365L15.18,34.3Z" transform="translate(0 -28.756)"/>
        <path id="Path_1175" data-name="Path 1175" d="M136.2,97.406h1.646a.366.366,0,1,0,0-.732H136.2a.366.366,0,1,0,0,.732Z" transform="translate(-131.082 -94.296)"/>
        <path id="Path_1176" data-name="Path 1176" d="M136.2,144.427h5.853a.366.366,0,0,0,0-.732H136.2a.366.366,0,1,0,0,.732Z" transform="translate(-131.082 -139.671)"/>
        <path id="Path_1177" data-name="Path 1177" d="M142.421,191.081a.366.366,0,0,0-.366-.366H136.2a.366.366,0,1,0,0,.732h5.853A.366.366,0,0,0,142.421,191.081Z" transform="translate(-131.082 -185.045)"/>
      </g>
    </g>
  </g>
</svg>
