<svg xmlns="http://www.w3.org/2000/svg" width="19.058" height="14.294" viewBox="0 0 19.058 14.294">
  <path id="envelope" d="M17.271,59.882H1.787A1.789,1.789,0,0,0,0,61.669v10.72a1.789,1.789,0,0,0,1.787,1.787H17.271a1.789,1.789,0,0,0,1.787-1.787V61.669A1.789,1.789,0,0,0,17.271,59.882Zm0,1.191a.592.592,0,0,1,.228.046L9.529,68.027,1.558,61.119a.593.593,0,0,1,.228-.046Zm0,11.911H1.787a.6.6,0,0,1-.6-.6V62.378l7.948,6.888a.6.6,0,0,0,.781,0l7.948-6.888V72.389A.6.6,0,0,1,17.271,72.984Z" transform="translate(0 -59.882)"/>
</svg>
