<svg xmlns="http://www.w3.org/2000/svg" width="14.938" height="12.813" viewBox="0 0 14.938 12.813">
  <g id="private" transform="translate(-769.767 -376.154)">
    <path id="Path_1026" data-name="Path 1026" d="M784.706,382.648a4.961,4.961,0,0,1-.309.488,13.629,13.629,0,0,1-3,2.793,7.931,7.931,0,0,1-3.368,1.378,6.059,6.059,0,0,1-2.733-.269,11.444,11.444,0,0,1-1.115-.462.181.181,0,0,0-.248.037c-.715.722-1.437,1.438-2.154,2.158a.558.558,0,0,1-.466.194.5.5,0,0,1-.45-.342.514.514,0,0,1,.133-.575q.777-.78,1.557-1.558l.541-.538c-.061-.045-.113-.085-.167-.124a14.1,14.1,0,0,1-2.99-2.866.556.556,0,0,1-.01-.791,13.266,13.266,0,0,1,3.8-3.385,6.9,6.9,0,0,1,3.395-1.02,6.561,6.561,0,0,1,2.625.523c.193.08.381.171.565.268a.151.151,0,0,0,.212-.036c.72-.724,1.444-1.444,2.165-2.167a.555.555,0,0,1,.523-.188.527.527,0,0,1,.313.851c-.08.1-.174.183-.263.272l-1.881,1.881c.05.038.093.072.138.1a13.938,13.938,0,0,1,2.958,2.815,3.561,3.561,0,0,1,.23.384C784.706,382.531,784.706,382.59,784.706,382.648ZM775,384.022a2.675,2.675,0,0,1,3.693-3.706l.9-.917c-.01-.005-.034-.02-.06-.032a5.437,5.437,0,0,0-2.148-.535,5.615,5.615,0,0,0-2.819.714,10.934,10.934,0,0,0-2.707,2.052c-.3.306-.588.631-.884.952a13.239,13.239,0,0,0,2.878,2.607Zm-.129,1.691c.025.014.058.034.092.051a5.483,5.483,0,0,0,2.136.525,5.589,5.589,0,0,0,2.806-.711,11.762,11.762,0,0,0,3.3-2.677c.1-.111.194-.226.292-.34a13.185,13.185,0,0,0-2.862-2.591l-1.143,1.148a2.689,2.689,0,0,1-.268,3.229,2.612,2.612,0,0,1-1.371.808,2.642,2.642,0,0,1-2.062-.359Zm3.017-4.6a1.573,1.573,0,0,0-2.091,2.091Zm-1.308,2.889a1.577,1.577,0,0,0,1.887-.416,1.52,1.52,0,0,0,.208-1.679Z"/>
  </g>
</svg>
