<svg xmlns="http://www.w3.org/2000/svg" width="16.739" height="10.669" viewBox="0 0 16.739 10.669">
  <g id="Group_9152" data-name="Group 9152" transform="translate(0 -2)">
    <g id="view" transform="translate(0 2)">
      <g id="Group_6" data-name="Group 6" transform="translate(0 0)">
        <g id="Group_5" data-name="Group 5">
          <path id="Path_5" data-name="Path 5" d="M16.633,97.844c-.15-.2-3.713-5.009-8.263-5.009S.256,97.639.106,97.844a.552.552,0,0,0,0,.651c.149.2,3.713,5.009,8.263,5.009s8.114-4.8,8.263-5.009A.552.552,0,0,0,16.633,97.844ZM8.369,102.4c-3.352,0-6.255-3.189-7.115-4.231.858-1.043,3.755-4.23,7.115-4.23s6.255,3.188,7.115,4.231C14.626,99.213,11.729,102.4,8.369,102.4Z" transform="translate(0 -92.835)" fill="#3992c5"/>
        </g>
      </g>
      <g id="Group_8" data-name="Group 8" transform="translate(5.058 2.023)">
        <g id="Group_7" data-name="Group 7" transform="translate(0 0)">
          <path id="Path_6" data-name="Path 6" d="M158.033,154.725a3.311,3.311,0,1,0,3.311,3.311A3.315,3.315,0,0,0,158.033,154.725Zm0,5.518a2.207,2.207,0,1,1,2.207-2.207A2.21,2.21,0,0,1,158.033,160.243Z" transform="translate(-154.722 -154.725)" fill="#3992c5"/>
        </g>
      </g>
    </g>
  </g>
</svg>
