<svg xmlns="http://www.w3.org/2000/svg" width="20.557" height="15.947" viewBox="0 0 20.557 15.947">
  <g id="folder_1_" data-name="folder(1)" transform="translate(-704.01 -340.94)">
    <path id="Path_1240" data-name="Path 1240" d="M724.567,348.771v.482c-.093.234-.173.475-.282.7-.3.625-.616,1.245-.925,1.866-.762,1.53-1.528,3.059-2.283,4.592a.733.733,0,0,1-.756.473c-.247-.013-.495,0-.742,0q-7.051,0-14.1-.006a2.11,2.11,0,0,1-.739-.138,1.3,1.3,0,0,1-.727-.9V341.986a1.327,1.327,0,0,1,1.519-1.044c1.5,0,3,0,4.495,0a1.426,1.426,0,0,1,1.26.644c.373.538.764,1.064,1.139,1.6a.347.347,0,0,0,.326.169q3.6-.008,7.2,0a1.258,1.258,0,0,1,1.366,1.359q0,1.224,0,2.448v.223c.5,0,.969,0,1.437,0a1.681,1.681,0,0,1,1.444.646A4.469,4.469,0,0,1,724.567,348.771Zm-19,6.9c.062,0,.094.008.127.008q7.127,0,14.253,0a.217.217,0,0,0,.224-.147c.359-.732.725-1.461,1.088-2.191q1.014-2.037,2.027-4.074a.427.427,0,0,0-.354-.669,1.385,1.385,0,0,0-.2-.014q-6.695,0-13.39,0a.662.662,0,0,0-.671.43c-.63,1.372-1.274,2.738-1.914,4.106ZM720.1,344.555h-.251q-3.584,0-7.167,0a1.371,1.371,0,0,1-1.208-.622c-.378-.544-.771-1.076-1.151-1.619a.356.356,0,0,0-.329-.173c-1.519.006-3.038,0-4.557,0-.071,0-.142.006-.21.01v11.371l.11-.233q1.121-2.4,2.243-4.793a2.412,2.412,0,0,1,.236-.418,1.8,1.8,0,0,1,1.561-.7q5.229.005,10.459,0h.263Z" transform="translate(0 0)"/>
  </g>
</svg>
