<svg xmlns="http://www.w3.org/2000/svg" width="20.557" height="17.984" viewBox="0 0 20.557 17.984">
  <g id="folder" transform="translate(-768 -372.02)">
    <path id="Path_1239" data-name="Path 1239" d="M788.557,375.591V388.36a.162.162,0,0,0-.019.035A1.906,1.906,0,0,1,786.443,390H770.094c-.094,0-.187,0-.281,0a1.9,1.9,0,0,1-1.715-1.294c-.037-.113-.065-.23-.1-.345v-14.7a.442.442,0,0,0,.031-.073,1.891,1.891,0,0,1,1.943-1.57c1.057,0,2.114,0,3.17,0a1.966,1.966,0,0,1,1.475.609c.332.339.679.665,1,1.011a.966.966,0,0,0,.763.32c1.866-.009,3.732,0,5.6,0,1.532,0,3.063,0,4.594,0a1.868,1.868,0,0,1,1.82,1.145A4,4,0,0,1,788.557,375.591Zm-10.278,2.8h-8.23c-.608,0-.844.239-.844.853v8.713c0,.592.249.84.843.84h16.461c.594,0,.845-.249.845-.839v-8.733c0-.594-.243-.835-.843-.835Zm-9.075-1.157c.518-.016,1.022-.045,1.527-.046q7.507,0,15.015,0a4.831,4.831,0,0,1,1.588.108.28.28,0,0,0,.016-.052q0-.612,0-1.224c0-.618-.244-.862-.862-.862q-5.059,0-10.117,0a2.061,2.061,0,0,1-1.579-.653c-.332-.349-.683-.68-1.019-1.025a.827.827,0,0,0-.626-.263c-1.057,0-2.115,0-3.172,0a.7.7,0,0,0-.773.769q0,1.054,0,2.108C769.2,376.5,769.2,376.89,769.2,377.234Z"/>
  </g>
</svg>
