<svg xmlns="http://www.w3.org/2000/svg" width="17.482" height="14.285" viewBox="0 0 17.482 14.285">
  <g id="heart-beat" transform="translate(-851.639 -451.483)">
    <path id="Path_960" data-name="Path 960" d="M785.482,390.415a.638.638,0,0,1-.687.38c-.363-.018-.728-.009-1.092,0a.325.325,0,0,0-.2.083q-3.152,3.145-6.3,6.3a.547.547,0,0,1-.917,0q-3.148-3.149-6.3-6.3a.324.324,0,0,0-.2-.083c-.364-.008-.728-.018-1.092,0a.639.639,0,0,1-.688-.38v-.273a.623.623,0,0,1,.688-.378c.162.014.326,0,.509,0a4.593,4.593,0,0,1,1.522-5.841,4.635,4.635,0,0,1,6.033.757,4.552,4.552,0,0,1,2.879-1.508,4.573,4.573,0,0,1,4.876,3.027,4.591,4.591,0,0,1-.221,3.566c.183,0,.346.011.508,0a.623.623,0,0,1,.688.378Q785.482,390.278,785.482,390.415Zm-8.784.486c.043-.071.076-.122.106-.174l1.525-2.663a.524.524,0,0,1,.976-.03c.341.537.683,1.074,1.02,1.615a.221.221,0,0,0,.217.12q1.2-.007,2.406,0a.226.226,0,0,0,.219-.118,3.549,3.549,0,0,0-4.888-4.92,9.738,9.738,0,0,0-1.145,1.015.521.521,0,0,1-.785,0c-.195-.191-.383-.39-.581-.577a3.468,3.468,0,0,0-2.939-.972,3.554,3.554,0,0,0-2.527,5.439.253.253,0,0,0,.245.135c.529-.007,1.058-.008,1.587,0a.213.213,0,0,0,.236-.157q.593-1.433,1.2-2.859a.778.778,0,0,1,.254-.326.5.5,0,0,1,.732.256q.669,1.314,1.333,2.63C776.156,389.834,776.421,390.355,776.7,390.9Zm.013,5.215,5.325-5.325c-.577,0-1.2-.006-1.816,0a.613.613,0,0,1-.589-.328c-.158-.27-.333-.53-.5-.794-.091-.143-.182-.285-.283-.443-.041.068-.071.115-.1.163-.52.907-1.043,1.813-1.559,2.724-.122.216-.264.39-.535.381a.579.579,0,0,1-.5-.4c-.349-.7-.707-1.4-1.061-2.1-.318-.628-.637-1.256-.967-1.905-.033.071-.058.122-.08.173q-.446,1.06-.89,2.121a.546.546,0,0,1-.615.4h-1.007c-.047,0-.1.006-.136.01Z" transform="translate(83.639 68.345)"/>
  </g>
</svg>
