<?xml version="1.0" encoding="utf-8"?>
<!-- Generator: Adobe Illustrator 16.0.0, SVG Export Plug-In . SVG Version: 6.00 Build 0)  -->
<!DOCTYPE svg PUBLIC "-//W3C//DTD SVG 1.1//EN" "http://www.w3.org/Graphics/SVG/1.1/DTD/svg11.dtd">
<svg version="1.1" id="Layer_1" xmlns="http://www.w3.org/2000/svg" xmlns:xlink="http://www.w3.org/1999/xlink" x="0px" y="0px"
	 width="18.436px" height="20.492px" viewBox="0 0 18.436 20.492" enable-background="new 0 0 18.436 20.492" xml:space="preserve">
<path fill="#9A9DA1" d="M1.968,6.515c0.518-0.007,0.931-0.431,0.924-0.948C2.886,5.18,2.643,4.835,2.28,4.701V3.282l1.088,0.421
	v2.963C3.37,6.887,3.488,7.091,3.68,7.202c0,2.067,1.676,3.743,3.742,3.743c2.067,0,3.743-1.676,3.743-3.743
	c0.192-0.111,0.311-0.315,0.313-0.536V3.703l1.481-0.574c0.64-0.246,0.644-0.658,0-0.914L8.545,0.44
	c-0.75-0.257-1.563-0.257-2.313,0L1.873,2.21c-0.547,0.221-0.624,0.56-0.22,0.806v1.685C1.168,4.88,0.92,5.418,1.099,5.903
	C1.234,6.268,1.58,6.511,1.968,6.515z M7.423,10.253c-1.66-0.002-3.027-1.305-3.11-2.963h6.222
	C10.451,8.948,9.084,10.251,7.423,10.253z M10.854,6.666H3.992V3.945L6.253,4.82c0.761,0.248,1.579,0.248,2.339,0l2.262-0.875
	L10.854,6.666z M6.468,1.022c0.6-0.204,1.25-0.208,1.852-0.011l4.117,1.65L8.362,4.239C7.753,4.43,7.1,4.43,6.491,4.239L2.409,2.666
	L6.468,1.022z M1.968,5.269c0.173,0,0.313,0.14,0.313,0.312S2.14,5.893,1.968,5.893c-0.172,0-0.312-0.14-0.312-0.312
	S1.796,5.269,1.968,5.269L1.968,5.269z"/>
<path fill="#9A9DA1" d="M9.041,11.184h1.4l0.468-0.583c-0.198-0.028-0.399-0.042-0.6-0.042h-0.193
	C9.79,10.817,9.427,11.027,9.041,11.184z"/>
<path fill="#9A9DA1" d="M3.369,19.588v-1.871c0-0.172-0.14-0.312-0.313-0.312c-0.172,0.001-0.312,0.14-0.312,0.312v1.871H1.172
	c-0.165,0-0.3-0.135-0.3-0.3l0,0v-4.461c0.005-2.014,1.639-3.644,3.652-3.644h1.28c-0.388-0.154-0.752-0.365-1.079-0.624h-0.2
	c-2.357,0-4.271,1.909-4.275,4.267v4.466c0.002,0.508,0.414,0.919,0.922,0.919h9.318l-0.8-0.624H3.369z"/>
<path fill="#9A9DA1" d="M18.183,14.334c-0.01-0.084-0.054-0.16-0.12-0.211l-4.352-3.342c-0.134-0.103-0.325-0.081-0.432,0.05
	l-0.607,0.745l-0.831-0.639c-0.134-0.104-0.325-0.081-0.432,0.049l-4.382,5.375C6.92,16.494,6.94,16.691,7.074,16.8
	c0.002,0.001,0.003,0.003,0.005,0.005l4.352,3.342c0.134,0.103,0.325,0.08,0.432-0.051l0.607-0.744l0.83,0.639
	c0.134,0.103,0.326,0.08,0.433-0.051l4.382-5.373C18.168,14.501,18.192,14.418,18.183,14.334z M11.569,19.469l-3.857-2.967
	l3.988-4.891l3.857,2.963L11.569,19.469z M13.444,19.313l-0.579-0.443l3.379-4.146c0.108-0.135,0.088-0.331-0.046-0.439
	c-0.002-0.002-0.003-0.003-0.005-0.004l-3.024-2.324l0.405-0.5l3.857,2.963L13.444,19.313z"/>
<path fill="#9A9DA1" d="M12.804,15.956l-0.394-0.451l0.152-0.623c0.042-0.167-0.06-0.337-0.227-0.378
	c-0.072-0.019-0.147-0.01-0.214,0.021l-0.552,0.269l-0.5-0.312c-0.149-0.087-0.34-0.037-0.427,0.112
	c-0.031,0.054-0.046,0.116-0.041,0.179l0.051,0.625l-0.482,0.447c-0.126,0.117-0.134,0.314-0.017,0.441
	c0.046,0.049,0.106,0.083,0.173,0.095l0.575,0.109l0.217,0.56c0.042,0.111,0.144,0.189,0.262,0.2h0.023
	c0.111,0.001,0.215-0.06,0.271-0.156l0.313-0.558l0.604-0.069c0.172-0.019,0.295-0.174,0.275-0.345
	c-0.007-0.063-0.033-0.123-0.075-0.17L12.804,15.956z M11.77,15.938c-0.1,0.011-0.188,0.068-0.237,0.155l-0.07,0.125l-0.042-0.108
	c-0.039-0.1-0.126-0.172-0.231-0.192l-0.128-0.024l0.125-0.113c0.071-0.064,0.108-0.16,0.1-0.256l-0.014-0.174l0.12,0.073
	c0.091,0.056,0.204,0.062,0.3,0.015l0.1-0.052l-0.03,0.128c-0.024,0.099,0,0.203,0.066,0.279l0.109,0.125L11.77,15.938z"/>
<g id="Ellipse_26">
	<circle fill="#9A9DA1" cx="7.424" cy="12.429" r="0.312"/>
	<circle fill="#9A9DA1" cx="7.424" cy="12.429" r="0.562"/>
</g>
<g id="Ellipse_27">
	<circle fill="#9A9DA1" cx="7.424" cy="13.675" r="0.312"/>
	<circle fill="#9A9DA1" cx="7.424" cy="13.675" r="0.562"/>
</g>
</svg>
