<svg id="inbox" xmlns="http://www.w3.org/2000/svg" width="18.799" height="13.307" viewBox="0 0 18.799 13.307">
  <g id="Group_8801" data-name="Group 8801" transform="translate(0 0)">
    <path id="Path_927" data-name="Path 927" d="M18.733,80.186l-2.514-5.048a.634.634,0,0,0-.567-.351H3.147a.634.634,0,0,0-.567.351L.066,80.186A.633.633,0,0,0,0,80.468v6.992a.634.634,0,0,0,.634.634H18.165a.634.634,0,0,0,.634-.634V80.468A.633.633,0,0,0,18.733,80.186ZM3.539,76.053h11.72l1.893,3.8h-4.1a.637.637,0,0,0-.621.505,3.277,3.277,0,0,1-3.139,2.621,3.276,3.276,0,0,1-3.139-2.618.633.633,0,0,0-.621-.508H1.646ZM17.532,86.826H1.267v-5.7H5.053a4.439,4.439,0,0,0,8.481,0h4Z" transform="translate(0 -74.786)" fill="#333"/>
  </g>
</svg>
