<svg xmlns="http://www.w3.org/2000/svg" width="18" height="22.588" viewBox="0 0 18 22.588">
  <g id="lock" transform="translate(-52)">
    <g id="Group_69" data-name="Group 69" transform="translate(52)">
      <g id="Group_68" data-name="Group 68" transform="translate(0)">
        <path id="Path_1168" data-name="Path 1168" d="M67.353,8.294h-1.59V4.666a4.766,4.766,0,0,0-9.529,0V8.294H54.647A2.65,2.65,0,0,0,52,10.941v9a2.65,2.65,0,0,0,2.647,2.647H67.353A2.65,2.65,0,0,0,70,19.941v-9A2.65,2.65,0,0,0,67.353,8.294ZM58,4.666a3,3,0,0,1,6,0V8.294H58ZM68.235,19.941a.883.883,0,0,1-.882.882H54.647a.883.883,0,0,1-.882-.882v-9a.883.883,0,0,1,.882-.882H67.353a.883.883,0,0,1,.882.882Z" transform="translate(-52)"/>
      </g>
    </g>
    <g id="Group_71" data-name="Group 71" transform="translate(59.368 12.618)">
      <g id="Group_70" data-name="Group 70" transform="translate(0)">
        <path id="Path_1169" data-name="Path 1169" d="M220.632,286a1.632,1.632,0,0,0-.884,3v1.937a.882.882,0,0,0,1.765,0v-1.935a1.632,1.632,0,0,0-.881-3.006Z" transform="translate(-219 -286)"/>
      </g>
    </g>
  </g>
</svg>
