<svg xmlns="http://www.w3.org/2000/svg" width="99" height="99" viewBox="0 0 99 99">
  <g id="Group_7" data-name="Group 7" transform="translate(-954 -126)">
    <g id="Ellipse_6" data-name="Ellipse 6" transform="translate(954 126)" fill="#fff" stroke="#707070" stroke-width="2" opacity="0.53">
      <circle cx="49.5" cy="49.5" r="49.5" stroke="none"/>
      <circle cx="49.5" cy="49.5" r="48.5" fill="none"/>
    </g>
    <g id="lock_2_" data-name="lock(2)" transform="translate(934 153)" opacity="0.42">
      <g id="Group_4" data-name="Group 4" transform="translate(52)">
        <g id="Group_3" data-name="Group 3">
          <path id="Path_8" data-name="Path 8" d="M82.706,16.588h-3.18V9.333a9.531,9.531,0,0,0-19.059,0v7.256H57.294A5.3,5.3,0,0,0,52,21.882v18a5.3,5.3,0,0,0,5.294,5.294H82.706A5.3,5.3,0,0,0,88,39.882v-18A5.3,5.3,0,0,0,82.706,16.588ZM64,9.333a6,6,0,0,1,12,0v7.256H64Zm20.474,30.55a1.767,1.767,0,0,1-1.765,1.765H57.294a1.767,1.767,0,0,1-1.765-1.765v-18a1.767,1.767,0,0,1,1.765-1.765H82.706a1.767,1.767,0,0,1,1.765,1.765Z" transform="translate(-52)"/>
        </g>
      </g>
      <g id="Group_6" data-name="Group 6" transform="translate(66.735 25.235)">
        <g id="Group_5" data-name="Group 5">
          <path id="Path_9" data-name="Path 9" d="M222.265,286a3.264,3.264,0,0,0-1.768,6.009v3.874a1.765,1.765,0,1,0,3.529,0v-3.87A3.264,3.264,0,0,0,222.265,286Z" transform="translate(-219 -286)"/>
        </g>
      </g>
    </g>
  </g>
</svg>
