<svg id="logout_1_" data-name="logout(1)" xmlns="http://www.w3.org/2000/svg" width="14.898" height="14.898" viewBox="0 0 14.898 14.898">
  <g id="Group_8484" data-name="Group 8484">
    <g id="Group_8483" data-name="Group 8483">
      <path id="Path_830" data-name="Path 830" d="M13.243,0H1.655A1.655,1.655,0,0,0,0,1.655V4.966H1.655V1.655H13.243V13.243H1.655V9.932H0v3.311A1.655,1.655,0,0,0,1.655,14.9H13.243A1.655,1.655,0,0,0,14.9,13.243V1.655A1.655,1.655,0,0,0,13.243,0Z" fill="#333"/>
      <path id="Path_831" data-name="Path 831" d="M5.864,92.439,7.035,93.61l4.138-4.138L7.035,85.333,5.864,86.5,8,88.644H0V90.3H8Z" transform="translate(0 -82.022)" fill="#333"/>
    </g>
  </g>
</svg>
