<svg xmlns="http://www.w3.org/2000/svg" width="15.692" height="15.7" viewBox="0 0 15.692 15.7">
  <g id="organization" transform="translate(-114 -203.9)">
    <path id="Path_1158" data-name="Path 1158" d="M240.313,203.9a4.41,4.41,0,0,1,.78.323,1.82,1.82,0,0,1,.4,2.673c-.025.033-.049.061-.061.078a8.563,8.563,0,0,1,.678.58,2.725,2.725,0,0,1,.764,1.945c0,.155,0,.306,0,.458a.455.455,0,0,1-.486.478h-4.642a.436.436,0,0,1-.474-.4,3.3,3.3,0,0,1,.368-1.97,2.911,2.911,0,0,1,.989-1.005.224.224,0,0,0,.053-.037,5.115,5.115,0,0,1-.38-.805,1.826,1.826,0,0,1,1.422-2.288.923.923,0,0,0,.1-.033C239.986,203.9,240.15,203.9,240.313,203.9Zm1.639,5.607a1.852,1.852,0,0,0-.985-1.7,1.788,1.788,0,0,0-1.978.11,1.846,1.846,0,0,0-.805,1.586Zm-.964-3.768a.919.919,0,1,0-.919.919A.92.92,0,0,0,240.987,205.743Z" transform="translate(-118.222 0)"/>
    <path id="Path_1159" data-name="Path 1159" d="M114,433.488a6.033,6.033,0,0,1,.168-.662,2.746,2.746,0,0,1,1.185-1.451c.033-.02.065-.045.1-.065a1.842,1.842,0,1,1,2.7,0c.041.029.082.053.123.082a2.784,2.784,0,0,1,1.332,2.346c0,.139-.008.278,0,.413a.548.548,0,0,1-.339.6h-4.936a.685.685,0,0,1-.335-.335Zm4.691.331a1.858,1.858,0,0,0-.932-1.663,1.8,1.8,0,0,0-2,.053,1.854,1.854,0,0,0-.846,1.614C116.178,433.819,117.424,433.819,118.691,433.819Zm-1.88-4.687a.911.911,0,0,0-.924.9.917.917,0,1,0,.924-.9Z" transform="translate(0 -215.151)"/>
    <path id="Path_1160" data-name="Path 1160" d="M360.94,434.479a.586.586,0,0,1-.343-.617,3.687,3.687,0,0,1,.2-1.4,2.841,2.841,0,0,1,1.136-1.349c.037-.025.078-.049.127-.082a1.843,1.843,0,0,1-.466-1.577,1.753,1.753,0,0,1,.654-1.107,1.831,1.831,0,0,1,2.419.094,1.859,1.859,0,0,1,.086,2.591c.114.078.229.147.339.233a2.757,2.757,0,0,1,1.087,1.867.679.679,0,0,0,.025.086v.919a.685.685,0,0,1-.335.335Q363.408,434.481,360.94,434.479Zm4.352-.928a1.886,1.886,0,1,0-3.772,0C362.787,433.552,364.033,433.552,365.292,433.552Zm-1.888-4.687a.917.917,0,1,0,.915.911A.916.916,0,0,0,363.4,428.865Z" transform="translate(-236.52 -214.884)"/>
    <path id="Path_1161" data-name="Path 1161" d="M114,579.8a.686.686,0,0,0,.335.335H114Z" transform="translate(0 -360.539)" fill="#fff"/>
    <path id="Path_1162" data-name="Path 1162" d="M489.8,580.135a.685.685,0,0,0,.335-.335v.335Z" transform="translate(-360.443 -360.539)" fill="#fff"/>
    <path id="Path_1163" data-name="Path 1163" d="M248.635,489.033a7.345,7.345,0,0,1-2.1-.306.466.466,0,0,1-.347-.576.455.455,0,0,1,.6-.307,6.094,6.094,0,0,0,3.645-.02.463.463,0,0,1,.617.294.469.469,0,0,1-.347.588A7.136,7.136,0,0,1,248.635,489.033Z" transform="translate(-126.773 -272.294)"/>
    <path id="Path_1164" data-name="Path 1164" d="M393.552,298a.456.456,0,0,1-.9.131c-.123-.421-.225-.85-.38-1.255a5.849,5.849,0,0,0-1.32-1.986.71.71,0,0,1-.184-.323.425.425,0,0,1,.241-.466.451.451,0,0,1,.535.09,6.969,6.969,0,0,1,1.279,1.688,7.074,7.074,0,0,1,.715,1.99C393.548,297.925,393.548,297.979,393.552,298Z" transform="translate(-265.45 -86.47)"/>
    <path id="Path_1165" data-name="Path 1165" d="M152.1,297.934c.106-.372.192-.752.319-1.116a6.922,6.922,0,0,1,1.68-2.652.466.466,0,0,1,.691-.049.473.473,0,0,1-.045.7,6.063,6.063,0,0,0-1.692,3.159.47.47,0,0,1-.548.429A.5.5,0,0,1,152.1,297.934Z" transform="translate(-36.543 -86.404)"/>
  </g>
</svg>
