<?xml version="1.0" encoding="utf-8"?>
<!-- Generator: Adobe Illustrator 16.0.0, SVG Export Plug-In . SVG Version: 6.00 Build 0)  -->
<!DOCTYPE svg PUBLIC "-//W3C//DTD SVG 1.1//EN" "http://www.w3.org/Graphics/SVG/1.1/DTD/svg11.dtd">
<svg version="1.1" id="plus" xmlns="http://www.w3.org/2000/svg" xmlns:xlink="http://www.w3.org/1999/xlink" x="0px" y="0px"
	 width="20.557px" height="20.557px" viewBox="0 0 20.557 20.557" enable-background="new 0 0 20.557 20.557" xml:space="preserve">
<g id="Group_9512">
	<g id="Group_9511">
		<path id="Path_1241" d="M10.279,0C4.602-0.001,0,4.6,0,10.277C-0.001,15.954,4.6,20.558,10.277,20.558
			c5.677,0,10.281-4.602,10.281-10.278c0-0.001,0-0.001,0-0.002C20.552,4.604,15.954,0.007,10.279,0z M10.279,18.964
			c-4.797,0-8.686-3.889-8.686-8.686c0-4.797,3.889-8.686,8.686-8.686c4.798,0,8.687,3.889,8.687,8.686l0,0
			C18.958,15.072,15.073,18.956,10.279,18.964z"/>
	</g>
</g>
<g id="Group_9514" transform="translate(5.502 5.43)">
	<g id="Group_9513">
		<path d="M12.027,4.849c0,0.397-0.322,0.719-0.719,0.719H-1.755c-0.397,0-0.719-0.321-0.719-0.719l0,0
			c0-0.397,0.322-0.719,0.719-0.719h13.063C11.704,4.13,12.027,4.452,12.027,4.849L12.027,4.849z"/>
	</g>
</g>
</svg>
