<?xml version="1.0" encoding="utf-8"?>
<!-- Generator: Adobe Illustrator 16.0.0, SVG Export Plug-In . SVG Version: 6.00 Build 0)  -->
<!DOCTYPE svg PUBLIC "-//W3C//DTD SVG 1.1//EN" "http://www.w3.org/Graphics/SVG/1.1/DTD/svg11.dtd">
<svg version="1.1" id="payment" xmlns="http://www.w3.org/2000/svg" xmlns:xlink="http://www.w3.org/1999/xlink" x="0px" y="0px"
	 width="22.008px" height="22.008px" viewBox="0 0 22.008 22.008" enable-background="new 0 0 22.008 22.008" xml:space="preserve">
<path d="M0,14.917c0.113-0.268,0.346-0.463,0.628-0.527c1.072-0.354,2.138-0.729,3.206-1.094c0.551-0.189,0.825-0.057,1.028,0.492
	c0.01,0.025,0.025,0.049,0.062,0.125c0.142-0.105,0.271-0.229,0.381-0.367c1.344-2.284,4.286-3.047,6.571-1.703
	c0.246,0.146,0.479,0.313,0.694,0.498c0.104,0.08,0.229,0.125,0.359,0.131c0.422,0.016,0.846,0.018,1.268,0
	c0.834-0.082,1.638,0.334,2.052,1.063c0.063-0.037,0.124-0.072,0.181-0.109c0.785-0.522,1.563-1.059,2.359-1.567
	c0.967-0.621,2.254-0.341,2.874,0.626c0.042,0.064,0.079,0.133,0.114,0.201c0.09,0.208,0.168,0.422,0.231,0.639v0.6
	c-0.015,0.024-0.027,0.05-0.036,0.076c-0.093,0.551-0.404,1.041-0.865,1.357c-1.474,1.05-2.94,2.109-4.428,3.141
	c-1.107,0.767-2.415,1.195-3.762,1.231c-1.474,0.053-2.947,0.091-4.421,0.138c-0.5,0.016-1.01,0.033-1.516,0.051
	c0.045,0.531-0.084,0.724-0.579,0.893c-0.595,0.199-1.19,0.4-1.784,0.611c-0.551,0.191-1.1,0.39-1.651,0.584H2.623
	c-0.261-0.135-0.45-0.376-0.518-0.661c-0.416-1.253-0.848-2.5-1.278-3.747C0.554,16.801,0.276,16.006,0,15.213
	C0,15.116,0,15.016,0,14.917z M5.328,15.152c0.387,1.13,0.773,2.25,1.152,3.373c0.047,0.142,0.14,0.114,0.237,0.111
	c2-0.062,3.994-0.132,5.992-0.187c1.141-0.006,2.254-0.348,3.2-0.986c1.5-1.035,2.983-2.1,4.468-3.166
	c0.365-0.249,0.459-0.747,0.211-1.111c-0.008-0.01-0.014-0.02-0.021-0.029c-0.258-0.362-0.761-0.447-1.123-0.189
	c-0.001,0.001-0.002,0.002-0.002,0.002c-0.967,0.64-1.93,1.285-2.891,1.936c-0.063,0.043-0.111,0.104-0.139,0.174
	c-0.269,0.9-1.123,1.496-2.061,1.437c-1.133,0-2.265,0-3.395,0c-0.064,0.001-0.129-0.001-0.193-0.007
	c-0.351-0.035-0.605-0.35-0.569-0.699c0.027-0.26,0.208-0.477,0.459-0.548c0.104-0.025,0.211-0.036,0.318-0.034
	c1.131,0,2.262,0,3.395-0.007c0.177-0.001,0.352-0.043,0.508-0.124c0.27-0.168,0.393-0.496,0.301-0.801
	c-0.096-0.32-0.396-0.537-0.73-0.525c-0.6-0.007-1.2-0.014-1.801,0c-0.287,0.014-0.566-0.1-0.762-0.309
	c-1.359-1.344-3.548-1.33-4.891,0.027c-0.152,0.153-0.289,0.32-0.41,0.5c-0.285,0.469-0.69,0.852-1.174,1.108
	c-0.028,0.018-0.055,0.038-0.08,0.06V15.152z M1.464,15.469l1.735,5.076l2.336-0.801c-0.582-1.699-1.155-3.377-1.734-5.072
	L1.464,15.469z M14.744,0c0.273,0.053,0.548,0.093,0.816,0.159c2.91,0.724,4.682,3.669,3.959,6.579
	c-0.725,2.91-3.67,4.682-6.58,3.958c-2.909-0.724-4.681-3.669-3.958-6.579c0.534-2.145,2.313-3.752,4.5-4.064
	C13.583,0.037,13.693,0.017,13.798,0H14.744z M18.422,5.454c0.01-2.296-1.844-4.166-4.141-4.175
	c-2.297-0.01-4.166,1.844-4.175,4.141c-0.009,2.296,1.845,4.166,4.141,4.175c0.003,0,0.005,0,0.008,0
	C16.547,9.597,18.409,7.746,18.422,5.454z M16.005,4.049c0.06,0.365-0.187,0.71-0.552,0.77c-0.004,0.001-0.009,0.001-0.014,0.002
	c-0.34,0.047-0.654-0.191-0.701-0.532c-0.002-0.011-0.004-0.021-0.004-0.032c-0.029-0.227-0.139-0.314-0.355-0.3
	c-0.078-0.007-0.156-0.005-0.234,0.005c-0.112,0.036-0.258,0.072-0.314,0.157c-0.089,0.136,0.045,0.229,0.15,0.307
	c0.483,0.358,0.972,0.709,1.447,1.076c0.504,0.388,0.709,1.051,0.512,1.655c-0.137,0.429-0.458,0.775-0.875,0.946
	c-0.075,0.039-0.132,0.105-0.158,0.185c-0.063,0.354-0.4,0.591-0.754,0.528c-0.273-0.048-0.486-0.264-0.53-0.539
	c-0.024-0.074-0.077-0.134-0.147-0.169c-0.524-0.21-0.89-0.694-0.947-1.256c-0.07-0.362,0.165-0.713,0.527-0.784
	c0.008-0.002,0.016-0.003,0.023-0.004c0.352-0.045,0.674,0.205,0.719,0.557c0.002,0.015,0.004,0.029,0.004,0.043
	c-0.004,0.141,0.106,0.258,0.247,0.263c0.019,0.001,0.036,0,0.054-0.004c0.113,0.007,0.229,0.004,0.342-0.008
	c0.093-0.021,0.232-0.075,0.248-0.14c0.014-0.105-0.023-0.211-0.1-0.285c-0.469-0.365-0.951-0.713-1.428-1.067
	C12.482,4.942,12.32,4,12.802,3.318c0.163-0.23,0.387-0.41,0.646-0.52c0.108-0.029,0.188-0.121,0.2-0.233
	c0.057-0.292,0.313-0.501,0.611-0.5c0.298-0.015,0.563,0.189,0.625,0.481c0.026,0.129,0.119,0.234,0.244,0.275
	C15.629,3.033,15.968,3.507,16.005,4.049z"/>
</svg>
