<svg xmlns="http://www.w3.org/2000/svg" width="22.023" height="22.024" viewBox="0 0 22.023 22.024">
  <g id="phone" transform="translate(-0.011)">
    <g id="Group_9457" data-name="Group 9457" transform="translate(0.011 0)">
      <path id="Path_1218" data-name="Path 1218" d="M21.467,16.244l-2.738-2.738a1.938,1.938,0,0,0-2.738,0l-1.244,1.244a1.468,1.468,0,0,1-2.074,0l-5.394-5.4a1.466,1.466,0,0,1,0-2.074L8.523,6.033a1.935,1.935,0,0,0,0-2.739L5.786.566a1.938,1.938,0,0,0-2.736,0l-1,.989a6.989,6.989,0,0,0,0,9.873L10.6,19.977a6.977,6.977,0,0,0,9.873,0l1-1A1.938,1.938,0,0,0,21.467,16.244ZM3.96,1.479a.646.646,0,0,1,.913,0L7.611,4.208a.645.645,0,0,1,0,.913l-.456.456L3.506,1.929Zm7.551,17.586L2.965,10.514a5.674,5.674,0,0,1-.356-7.657L6.246,6.494a2.755,2.755,0,0,0,.12,3.77l5.394,5.4h0a2.754,2.754,0,0,0,3.771.12l3.638,3.638A5.663,5.663,0,0,1,11.512,19.065Zm9.043-1-.456.456-3.65-3.651.456-.456a.646.646,0,0,1,.913,0l2.738,2.738A.646.646,0,0,1,20.555,18.069Z" transform="translate(-0.011 0)"/>
    </g>
  </g>
</svg>
