<svg id="plus" xmlns="http://www.w3.org/2000/svg" width="20.557" height="20.557" viewBox="0 0 20.557 20.557">
  <g id="Group_9512" data-name="Group 9512">
    <g id="Group_9511" data-name="Group 9511">
      <path id="Path_1241" data-name="Path 1241" d="M10.279,0A10.279,10.279,0,1,0,20.557,10.279,10.29,10.29,0,0,0,10.279,0Zm0,18.965a8.686,8.686,0,1,1,8.686-8.686A8.7,8.7,0,0,1,10.279,18.965Z"/>
    </g>
  </g>
  <g id="Group_9514" data-name="Group 9514" transform="translate(5.502 5.43)">
    <g id="Group_9513" data-name="Group 9513">
      <path id="Path_1242" data-name="Path 1242" d="M145.78,139.219H142.6v-3.185a.8.8,0,0,0-1.592,0v3.185h-3.185a.8.8,0,0,0,0,1.592H141V144a.8.8,0,0,0,1.592,0v-3.185h3.185a.8.8,0,0,0,0-1.592Z" transform="translate(-137.022 -135.238)"/>
    </g>
  </g>
</svg>
