<svg xmlns="http://www.w3.org/2000/svg" width="20.002" height="20" viewBox="0 0 20.002 20">
  <g id="procedure" transform="translate(-767.98 -348)">
    <path id="Path_1158" data-name="Path 1158" d="M788.419,586.582c-.366-.051-.736-.08-1.1-.156a9.451,9.451,0,0,1-7.558-6.957.586.586,0,1,1,1.123-.318,8.4,8.4,0,0,0,15.786,1.294l.081-.185c-.162.065-.29.115-.417.167a.6.6,0,0,1-.837-.292.594.594,0,0,1,.376-.785q.807-.345,1.616-.684a.6.6,0,0,1,.881.367c.224.526.444,1.054.668,1.58.022.052.054.1.081.149v.313a.629.629,0,0,1-.624.432c-.323-.021-.469-.24-.57-.511-.027-.072-.066-.141-.109-.232-.043.091-.069.151-.1.209a9.468,9.468,0,0,1-7.052,5.458c-.356.07-.719.1-1.079.152Z" transform="translate(-11.141 -218.582)"/>
    <path id="Path_1159" data-name="Path 1159" d="M778.713,348c.366.051.736.08,1.1.156a9.448,9.448,0,0,1,7.557,6.955.59.59,0,0,1-.377.77.583.583,0,0,1-.744-.447,8.4,8.4,0,0,0-15.688-1.517c-.035.074-.065.151-.114.265.159-.066.281-.119.405-.166a.588.588,0,0,1,.772.3.578.578,0,0,1-.312.779q-.866.378-1.742.734a.572.572,0,0,1-.781-.34c-.235-.542-.462-1.089-.694-1.633a1.62,1.62,0,0,0-.081-.148v-.312a.209.209,0,0,0,.034-.044.557.557,0,0,1,.551-.389.576.576,0,0,1,.563.4c.05.123.107.245.174.4.049-.1.083-.165.117-.232a9.474,9.474,0,0,1,6.765-5.33c.436-.1.885-.134,1.329-.2Z" transform="translate(-0.029 0)"/>
    <path id="Path_1160" data-name="Path 1160" d="M777.512,348c-.443.065-.892.1-1.329.2a9.475,9.475,0,0,0-6.765,5.33c-.033.068-.068.134-.117.232-.067-.154-.123-.275-.174-.4a.576.576,0,0,0-.563-.4.557.557,0,0,0-.55.389.212.212,0,0,1-.034.044V348Z" transform="translate(0 0)" fill="#fff"/>
    <path id="Path_1161" data-name="Path 1161" d="M847.482,425.788a1.65,1.65,0,0,1-.955,1.421,1.7,1.7,0,0,1-1.828-.135.367.367,0,0,0-.565.222,1.755,1.755,0,0,1-3.469.006.362.362,0,0,0-.56-.232,1.757,1.757,0,0,1-2.464-2.442.364.364,0,0,0-.245-.578,1.755,1.755,0,0,1-.159-3.425c.037-.01.076-.018.114-.025a.437.437,0,0,0,.386-.4.234.234,0,0,0-.058-.133,1.758,1.758,0,0,1,2.468-2.464.382.382,0,0,0,.513-.236,1.716,1.716,0,0,1,1.358-1.464,1.744,1.744,0,0,1,2.1,1.379.452.452,0,0,0,.406.379c.054,0,.113-.052.164-.088a1.757,1.757,0,0,1,2.466,2.441.361.361,0,0,0,.226.574,1.755,1.755,0,0,1,.065,3.455.435.435,0,0,0-.385.4.273.273,0,0,0,.069.149A1.873,1.873,0,0,1,847.482,425.788Zm-9-.219a.609.609,0,0,0,.326.6.559.559,0,0,0,.623-.066c.1-.08.187-.18.283-.269a.6.6,0,0,1,.686-.11q.5.217,1.005.419a.59.59,0,0,1,.4.563c0,.117,0,.234,0,.352a.584.584,0,0,0,1.167,0c.007-.117,0-.234,0-.352a.59.59,0,0,1,.406-.561c.337-.134.671-.276,1.005-.418a.586.586,0,0,1,.67.1c.078.069.147.147.223.218a.587.587,0,1,0,.832-.827c-.076-.081-.16-.154-.232-.237a.575.575,0,0,1-.1-.637c.144-.347.29-.694.431-1.042a.581.581,0,0,1,.534-.39c.1-.007.208,0,.313,0a.586.586,0,1,0,.008-1.171c-.1,0-.2,0-.293,0a.6.6,0,0,1-.572-.42c-.13-.332-.269-.66-.412-.987a.6.6,0,0,1,.106-.686c.089-.1.189-.181.269-.282a.582.582,0,0,0-.823-.814c-.091.073-.169.162-.254.242a.6.6,0,0,1-.733.116c-.313-.141-.631-.272-.952-.4a.6.6,0,0,1-.432-.6c0-.1,0-.208,0-.312a.585.585,0,0,0-1.168,0c-.006.11,0,.221,0,.332a.594.594,0,0,1-.415.575q-.5.2-.987.412a.6.6,0,0,1-.7-.115c-.09-.084-.172-.179-.268-.256a.583.583,0,0,0-.81.833c.071.084.155.158.231.238a.6.6,0,0,1,.112.749c-.1.2-.2.408-.283.62-.266.711-.262.712-1.014.753a.585.585,0,0,0-.008,1.169c.11.006.221,0,.332,0a.6.6,0,0,1,.585.429c.127.326.263.649.4.969a.6.6,0,0,1-.109.7,1.947,1.947,0,0,0-.216.224A3.314,3.314,0,0,0,838.486,425.569Z" transform="translate(-64.42 -64.323)"/>
    <path id="Path_1162" data-name="Path 1162" d="M928.016,506.26A1.757,1.757,0,1,1,926.249,508,1.76,1.76,0,0,1,928.016,506.26Zm.575,1.759a.585.585,0,1,0-.582.583A.592.592,0,0,0,928.591,508.019Z" transform="translate(-150.026 -150.017)"/>
  </g>
</svg>
