<svg xmlns="http://www.w3.org/2000/svg" width="24.475" height="25.23" viewBox="0 0 24.475 25.23">
  <g id="preselection" transform="translate(-208.071 -296.81)">
    <path id="Path_1224" data-name="Path 1224" d="M216.509,300.53c0-1,.021-1.983-.009-2.967-.016-.542.177-.754.727-.751q6.786.019,13.571,0c.573,0,.771.187.77.767q-.025,9,0,18c0,.629-.218.836-.808.788-.478-.039-1.015-.109-1.073.6a.833.833,0,0,0,.153.579c.678.719,1.414,1.386,2.075,2.121a2.491,2.491,0,0,1,.61,1.122.979.979,0,0,1-.665,1.1,1.381,1.381,0,0,1-1.633-.23c-.7-.673-1.392-1.347-2.049-2.057a.814.814,0,0,0-1.074-.249,4.7,4.7,0,0,1-3.742,0,1.27,1.27,0,0,0-.659-.063q-5.248.892-10.49,1.815c-.581.1-.82-.033-.929-.649q-1.568-8.874-3.191-17.741c-.078-.429.023-.663.5-.745,2.546-.438,5.087-.9,7.63-1.354C216.3,300.589,216.38,300.564,216.509,300.53ZM220.4,314.5c-.521,0-.981-.011-1.439,0s-.688-.157-.685-.661q.025-3.313,0-6.627c-.005-.525.193-.7.706-.7q5.078.021,10.157,0c.495,0,.664.17.659.663-.02,1.767-.047,3.536.008,5.3.03.995.212,1.985.331,3.018l.553-.038v-17.72h-13.26v17.594H220.4C220.4,315.05,220.4,314.821,220.4,314.5Zm-11.37-11.727c1.043,5.9,2.073,11.722,3.111,17.6l9.782-1.763a1.148,1.148,0,0,0-1.44-.708c-2.263.456-4.543.828-6.815,1.238-.456.082-.838.1-.942-.5-.371-2.152-.761-4.3-1.132-6.453-.122-.712-.025-.825.708-.953,1.179-.206,2.358-.405,3.535-.62.775-.141.785-.17.574-.982-1.51.246-3.021.487-4.531.74-.491.082-.784-.119-.689-.6a12.35,12.35,0,0,1,.571-1.949,3.583,3.583,0,0,1,.573-.791,2.229,2.229,0,0,1,2.278-3.831,2.493,2.493,0,0,1,.862,1.04,2.239,2.239,0,0,1-.293,2.229l1.29.722v-5.747C213.989,301.885,211.554,302.319,209.027,302.77ZM228.9,307.5h-9.683v6.264c.525-.2,1.137.305,1.454-.542a4.823,4.823,0,0,1,7.817-1.924c.116.1.245.186.411.31Zm-8.187,9.424c.034-.082.069-.163.1-.245a2.6,2.6,0,0,0-.784-.311c-.9-.039-1.807-.013-2.713-.016-.765,0-.808-.05-.809-.836,0-1.362,0-2.723,0-4.141l-4.019.726,1.072,6.044C216,317.732,218.357,317.33,220.711,316.927Zm8.56-1.809a4.1,4.1,0,0,0-4.006-4.1,3.95,3.95,0,1,0,.045,7.9A3.7,3.7,0,0,0,229.271,315.118Zm-13-6.374a2.244,2.244,0,0,0-2.636-1.382,2.127,2.127,0,0,0-1.47,2.15Zm-4.054-3.7a1.411,1.411,0,0,0,1.447,1.478,1.3,1.3,0,0,0,1.28-1.213,1.422,1.422,0,0,0-1.4-1.468A1.236,1.236,0,0,0,212.213,305.041Zm16.206,13.709c.788.775,1.564,1.565,2.376,2.315.138.128.428.088.648.126,0-.244.1-.581-.024-.716-.752-.832-1.555-1.618-2.362-2.441C228.823,318.3,228.659,318.482,228.419,318.75Z" fill="#fff"/>
    <path id="Path_1225" data-name="Path 1225" d="M293.421,314.86a3.246,3.246,0,0,1,1.628,2.325c.1.674-.033.837-.7.838-1.6,0-3.195-.015-4.793.011-.592.01-.756-.261-.66-.774a2.987,2.987,0,0,1,1.646-2.365,2.3,2.3,0,0,1-.719-2.132,3.059,3.059,0,0,1,.838-1.348,2.14,2.14,0,0,1,2.913.211C294.42,312.5,294.384,313.63,293.421,314.86Zm.728,2.28a2.3,2.3,0,0,0-2.331-1.763,1.954,1.954,0,0,0-1.915,1.763Zm-.849-3.966a1.326,1.326,0,1,0-2.652.015,1.326,1.326,0,0,0,2.652-.015Z" transform="translate(-70.598 -12.345)" fill="#fff"/>
    <path id="Path_1226" data-name="Path 1226" d="M347.364,343.627a12.975,12.975,0,0,1-1.568-.021c-.2-.024-.365-.287-.547-.441.178-.134.352-.376.534-.382q1.662-.055,3.327,0c.181.005.355.24.531.369-.174.159-.336.434-.524.454A16.921,16.921,0,0,1,347.364,343.627Z" transform="translate(-119.864 -40.146)" fill="#fff"/>
    <path id="Path_1227" data-name="Path 1227" d="M347.482,356.792c.544,0,1.092-.033,1.632.018.187.018.355.245.53.375-.174.159-.343.449-.524.457-1.108.043-2.22.043-3.328,0-.186-.008-.361-.292-.542-.449.178-.134.347-.366.536-.384C346.348,356.758,346.916,356.792,347.482,356.792Z" transform="translate(-119.864 -52.401)" fill="#fff"/>
    <path id="Path_1228" data-name="Path 1228" d="M347.368,329.6a13.223,13.223,0,0,1-1.566-.02c-.2-.024-.369-.281-.552-.433.177-.134.351-.376.531-.382,1.128-.035,2.259-.032,3.389,0,.162.005.317.234.475.358-.151.158-.293.437-.457.452-.6.056-1.212.021-1.819.021A0,0,0,0,0,347.368,329.6Z" transform="translate(-119.864 -27.901)" fill="#fff"/>
    <path id="Path_1229" data-name="Path 1229" d="M347.488,314.657c.544,0,1.091-.033,1.631.018.186.018.352.239.528.366-.155.153-.308.432-.468.438q-1.725.057-3.451,0c-.164-.005-.318-.285-.477-.437.16-.128.313-.353.482-.366C346.314,314.63,346.9,314.659,347.488,314.657Z" transform="translate(-119.864 -15.586)" fill="#fff"/>
    <path id="Path_1230" data-name="Path 1230" d="M324.339,421.385a3.2,3.2,0,0,1-3.158-3.419,3.057,3.057,0,0,1,3.037-2.768,2.978,2.978,0,0,1,2.994,3.066C327.162,419.885,325.79,421.612,324.339,421.385ZM321.9,418.33a2.167,2.167,0,0,0,2.218,2.227,2.25,2.25,0,0,0,2.216-2.335,2.213,2.213,0,0,0-2.126-2.156A2.341,2.341,0,0,0,321.9,418.33Z" transform="translate(-98.832 -103.444)" fill="#fff"/>
  </g>
</svg>
