<?xml version="1.0" encoding="utf-8"?>
<!-- Generator: Adobe Illustrator 16.0.0, SVG Export Plug-In . SVG Version: 6.00 Build 0)  -->
<!DOCTYPE svg PUBLIC "-//W3C//DTD SVG 1.1//EN" "http://www.w3.org/Graphics/SVG/1.1/DTD/svg11.dtd">
<svg version="1.1" id="Layer_1" xmlns="http://www.w3.org/2000/svg" xmlns:xlink="http://www.w3.org/1999/xlink" x="0px" y="0px"
	 width="17.682px" height="18.025px" viewBox="0 0 17.682 18.025" enable-background="new 0 0 17.682 18.025" xml:space="preserve">
<g id="sent-email" transform="translate(0.503 0.559)">
	<g id="Path_928">
		<path fill="#333333" d="M16.36,0.527L9.838,16.742c-0.059,0.138-0.194,0.227-0.344,0.225H9.463
			c-0.159-0.01-0.294-0.123-0.329-0.279L7.588,9.2L0.297,7.876C0.145,7.852,0.026,7.733,0.002,7.581
			c-0.019-0.15,0.063-0.295,0.2-0.356l15.612-7.161l0,0l0,0l0.063-0.027c0.136-0.062,0.295-0.04,0.409,0.055
			c0.112,0.091,0.152,0.243,0.101,0.378l-0.022,0.056l0,0L16.36,0.527z M1.518,7.393L7.767,8.53l6.749-7.1L1.518,7.393z
			 M8.296,9.011l1.313,6.348l5.389-13.399L8.296,9.011z"/>
		<path fill="#333333" d="M9.499,17.466H9.487c-0.435-0.024-0.758-0.299-0.841-0.67L7.166,9.631L0.207,8.368
			c-0.355-0.058-0.64-0.342-0.699-0.708C-0.54,7.272-0.343,6.92-0.002,6.768l15.608-7.159c0.473-0.211,0.742-0.116,0.999,0.097
			c0.276,0.224,0.378,0.604,0.248,0.942l-0.078,0.188l-6.474,16.092C10.161,17.258,9.847,17.466,9.499,17.466z M8.839,9.166
			l0.924,4.469l3.794-9.434L8.839,9.166z M3.17,7.185L7.591,7.99l4.775-5.023L3.17,7.185z M14.876,1.77l0.354,0.228l0.55-1.366
			l-1.293,0.593L14.876,1.77z"/>
	</g>
</g>
</svg>
