<svg xmlns="http://www.w3.org/2000/svg" width="11.037" height="10.815" viewBox="0 0 11.037 10.815">
  <g id="settings-cog" transform="translate(0 -3.414)">
    <g id="Group_8909" data-name="Group 8909" transform="translate(0 3.414)">
      <g id="Group_8908" data-name="Group 8908" transform="translate(0 0)">
        <path id="Path_900" data-name="Path 900" d="M9.524,7.449,9.336,7c.644-1.455.6-1.5.476-1.624l-.822-.8-.082-.069h-.1a5.3,5.3,0,0,0-1.45.567L6.9,4.888c-.595-1.474-.656-1.474-.83-1.474H4.913c-.174,0-.242,0-.793,1.479l-.458.186a7.7,7.7,0,0,0-1.474-.537l-.11,0-.885.867c-.134.126-.181.171.5,1.6l-.187.444C0,8.042,0,8.1,0,8.277V9.414c0,.178,0,.241,1.511.783l.187.443c-.644,1.454-.6,1.5-.475,1.623l.822.8.082.07h.1a5.339,5.339,0,0,0,1.449-.568l.459.187c.595,1.474.656,1.473.83,1.473h1.16c.177,0,.24,0,.793-1.479l.46-.186a7.729,7.729,0,0,0,1.471.538l.11,0,.891-.873c.127-.128.171-.172-.506-1.6l.186-.444c1.508-.583,1.508-.644,1.508-.818V8.23C11.037,8.051,11.037,7.988,9.524,7.449ZM5.518,10.714A1.893,1.893,0,1,1,7.446,8.821,1.914,1.914,0,0,1,5.518,10.714Z" transform="translate(0 -3.414)"/>
      </g>
    </g>
  </g>
</svg>
