<svg xmlns="http://www.w3.org/2000/svg" width="16.5" height="16.5" viewBox="0 0 16.5 16.5">
  <g id="staff" transform="translate(-768 -348.01)">
    <path id="Path_1156" data-name="Path 1156" d="M784.5,361.835v2.675H768v-2.675a.706.706,0,0,0,.027-.074,1.446,1.446,0,0,1,1.493-1.183h1.58a1.974,1.974,0,0,1-1.609-2.124,1.934,1.934,0,0,1,3.827-.152,1.967,1.967,0,0,1-1.6,2.268h4.245a1.952,1.952,0,0,1,.027-3.86c-.141-.017-.247-.026-.351-.042A4.347,4.347,0,0,1,775,348.2c.292-.084.6-.128.894-.189h.709l.347.059a4.345,4.345,0,0,1,.444,8.483c-.277.075-.564.115-.845.17a1.961,1.961,0,0,1,1.623,1.784,2.113,2.113,0,0,1-.089.712,1.9,1.9,0,0,1-.327.619,2.161,2.161,0,0,1-.541.471,4.05,4.05,0,0,1-.626.265h4.2a1.989,1.989,0,0,1-1.628-2.143,1.934,1.934,0,0,1,3.815-.182,1.864,1.864,0,0,1-.3,1.488,1.992,1.992,0,0,1-1.279.831c.563.011,1.122,0,1.679.015a1.4,1.4,0,0,1,1.308.886A2.9,2.9,0,0,1,784.5,361.835Zm-4.866-9.478a3.384,3.384,0,1,0-3.376,3.387A3.389,3.389,0,0,0,779.634,352.357Zm-.967,11.179c0-.5,0-.98,0-1.463a.489.489,0,0,0-.534-.529c-.419,0-.838,0-1.257,0-.046,0-.092.006-.148.01v.945h-.969v-.956c-.5,0-.973,0-1.451,0a.476.476,0,0,0-.473.49c0,.284,0,.569,0,.854v.645Zm4.866,0c0-.484,0-.956,0-1.428a.5.5,0,0,0-.564-.563H779.61v1.991Zm-10.643-1.986a.142.142,0,0,0-.043,0q-1.691,0-3.383,0a.479.479,0,0,0-.5.5c0,.4,0,.805,0,1.208v.282h3.924Zm-1.469-3.872a.966.966,0,1,0,.961.968A.968.968,0,0,0,771.422,357.678Zm4.823,1.933a.966.966,0,1,0-.961-.967A.97.97,0,0,0,776.245,359.611Zm5.806-.964a.966.966,0,1,0-.965.964A.969.969,0,0,0,782.051,358.647Z" fill="#333"/>
    <path id="Path_1157" data-name="Path 1157" d="M912.788,414.247l-1.6-1.6.664-.664.935.941L914.712,411l.662.663Z" transform="translate(-137.037 -60.283)" fill="#333"/>
  </g>
</svg>
