<svg xmlns="http://www.w3.org/2000/svg" width="17.086" height="16.374" viewBox="0 0 17.086 16.374">
  <path id="star" d="M3.825,16.866a.909.909,0,0,1-.885-1.111l1.1-4.842L.311,7.644A.909.909,0,0,1,.826,6.055l4.932-.448,1.95-4.563a.908.908,0,0,1,1.67,0l1.95,4.564,4.931.448a.909.909,0,0,1,.516,1.589l-3.728,3.268,1.1,4.842a.908.908,0,0,1-1.351.981L8.543,14.194,4.29,16.737a.91.91,0,0,1-.466.129ZM8.543,13.1a.91.91,0,0,1,.466.129l4.014,2.4-1.037-4.57a.908.908,0,0,1,.288-.885l3.52-3.087-4.657-.423a.907.907,0,0,1-.755-.55L8.543,1.807,6.7,6.114a.9.9,0,0,1-.752.548l-4.657.423,3.52,3.087a.906.906,0,0,1,.288.886l-1.037,4.57,4.014-2.4a.91.91,0,0,1,.466-.129ZM5.721,5.7h0Zm5.644,0h0Zm0,0" transform="translate(-0.001 -0.492)" fill="#333"/>
</svg>
