<svg id="history" xmlns="http://www.w3.org/2000/svg" width="19.944" height="25.657" viewBox="0 0 19.944 25.657">
  <path id="Path_44" data-name="Path 44" d="M75.506,1.654H73.737V1.292A1.294,1.294,0,0,0,72.445,0H61.5a1.294,1.294,0,0,0-1.292,1.292v.361H58.439A1.441,1.441,0,0,0,57,3.093V24.219a1.44,1.44,0,0,0,1.439,1.439H75.506a1.44,1.44,0,0,0,1.439-1.439V3.093A1.441,1.441,0,0,0,75.506,1.654ZM61.71,1.5H72.234V3.257H61.71ZM75.441,24.154H58.5v-21h1.7v.311A1.294,1.294,0,0,0,61.5,4.761H72.445a1.294,1.294,0,0,0,1.292-1.292V3.157h1.7Z" transform="translate(-57)" fill="#3992c5"/>
  <path id="Path_45" data-name="Path 45" d="M187.806,143.364a.752.752,0,0,0,1.5,0V141.31h2.055a.752.752,0,1,0,0-1.5H189.31v-2.055a.752.752,0,0,0-1.5,0v2.055h-2.055a.752.752,0,1,0,0,1.5h2.055Z" transform="translate(-178.586 -130.135)" fill="#3992c5"/>
  <path id="Path_46" data-name="Path 46" d="M123.355,313h-1.6a.752.752,0,0,0,0,1.5h1.6a.752.752,0,0,0,0-1.5Z" transform="translate(-117.793 -297.315)" fill="#3992c5"/>
  <path id="Path_47" data-name="Path 47" d="M123.355,377h-1.6a.752.752,0,1,0,0,1.5h1.6a.752.752,0,0,0,0-1.5Z" transform="translate(-117.793 -358.108)" fill="#3992c5"/>
  <path id="Path_48" data-name="Path 48" d="M232.567,313h-6.815a.752.752,0,1,0,0,1.5h6.815a.752.752,0,0,0,0-1.5Z" transform="translate(-216.581 -297.315)" fill="#3992c5"/>
  <path id="Path_49" data-name="Path 49" d="M232.567,377h-6.815a.752.752,0,1,0,0,1.5h6.815a.752.752,0,1,0,0-1.5Z" transform="translate(-216.581 -358.108)" fill="#3992c5"/>
</svg>
