<svg xmlns="http://www.w3.org/2000/svg" width="12.948" height="17" viewBox="0 0 12.948 17">
  <g id="task" transform="translate(-159.8 -204)">
    <path id="Path_1194" data-name="Path 1194" d="M163.119,204h6.309a.374.374,0,0,0,.058.03.82.82,0,0,1,.612.81c0,.048.007.1.011.156h.722a1.825,1.825,0,0,1,1.918,1.917q0,1.818,0,3.636,0,4.258-.009,8.516a1.842,1.842,0,0,1-1.283,1.851c-.1.031-.2.057-.3.085h-9.763a.289.289,0,0,0-.059-.026,1.81,1.81,0,0,1-1.533-1.812q0-6.142.012-12.284A1.821,1.821,0,0,1,161.717,205h.7a4.19,4.19,0,0,1,.137-.541A.9.9,0,0,1,163.119,204Zm-.657,1.992h-.75a.835.835,0,0,0-.906.9q-.007,6.126-.011,12.252a.825.825,0,0,0,.869.863c.421,0,.841,0,1.262,0q3.951,0,7.9,0a.889.889,0,0,0,.688-.268.941.941,0,0,0,.228-.689q0-5.885.009-11.77c0-.16.007-.321,0-.481a.777.777,0,0,0-.521-.74,4.036,4.036,0,0,0-1.127-.068A.907.907,0,0,1,169.067,207c-1.217-.028-2.435-.008-3.652-.008-.7,0-1.406,0-2.109,0a.831.831,0,0,1-.844-.808C162.459,206.125,162.462,206.069,162.462,205.992Zm1-.01h5.628v-.972h-5.628Z" fill="#5e8e27"/>
    <path id="Path_1195" data-name="Path 1195" d="M300.851,482.495c-.569,0-1.138,0-1.708,0a.5.5,0,1,1,0-1h3.432a.5.5,0,1,1,0,1C302,482.5,301.426,482.495,300.851,482.495Z" transform="translate(-132.636 -265.213)" fill="#5e8e27"/>
    <path id="Path_1196" data-name="Path 1196" d="M300.844,332.489c-.564,0-1.128,0-1.692,0a.5.5,0,1,1,0-1h3.4a.5.5,0,1,1,0,1Z" transform="translate(-132.645 -121.848)" fill="#5e8e27"/>
    <path id="Path_1197" data-name="Path 1197" d="M300.857,406.492h1.692a.5.5,0,1,1,.005,1h-3.417a.5.5,0,1,1,0-1Z" transform="translate(-132.635 -193.526)" fill="#5e8e27"/>
    <path id="Path_1198" data-name="Path 1198" d="M211.744,390.918c.394-.394.761-.761,1.126-1.13a.519.519,0,0,1,.412-.178.474.474,0,0,1,.429.291.45.45,0,0,1-.078.526q-.765.784-1.549,1.548a.453.453,0,0,1-.635.011c-.242-.218-.474-.449-.694-.689a.483.483,0,0,1,.025-.663.494.494,0,0,1,.676-.027A3.8,3.8,0,0,1,211.744,390.918Z" transform="translate(-48.585 -177.391)" fill="#5e8e27"/>
    <path id="Path_1199" data-name="Path 1199" d="M211.823,465.874c.4-.4.773-.779,1.148-1.155a.484.484,0,0,1,.519-.128.5.5,0,0,1,.192.822c-.495.5-.989,1-1.49,1.489a.483.483,0,0,1-.713.007c-.213-.2-.421-.409-.622-.621a.5.5,0,1,1,.7-.7C211.648,465.671,211.724,465.767,211.823,465.874Z" transform="translate(-48.657 -249.029)" fill="#5e8e27"/>
    <path id="Path_1200" data-name="Path 1200" d="M211.853,310.224a2.2,2.2,0,0,1,.174-.239q.471-.479.95-.951a.5.5,0,0,1,.715-.021.49.49,0,0,1,0,.713q-.734.744-1.478,1.478a.488.488,0,0,1-.736,0q-.3-.294-.6-.6a.5.5,0,0,1,0-.714.491.491,0,0,1,.7.009C211.661,309.984,211.733,310.083,211.853,310.224Z" transform="translate(-48.669 -100.231)" fill="#5e8e27"/>
  </g>
</svg>
