<svg id="task" xmlns="http://www.w3.org/2000/svg" width="18.214" height="23.609" viewBox="0 0 18.214 23.609">
  <path id="Path_933" data-name="Path 933" d="M768.1,284h7.656a1.019,1.019,0,0,1,.74,1.15c-.014.212,0,.426,0,.664h.27c.622,0,1.245,0,1.867,0a2.35,2.35,0,0,1,2.419,2.454q0,6.451,0,12.9,0,2.016,0,4.032a2.226,2.226,0,0,1-.956,1.942,5.956,5.956,0,0,1-1.062.465h-14.2c-.019-.012-.036-.031-.056-.035a2.391,2.391,0,0,1-1.934-2.446c.018-5.633.007-11.265.008-16.9a2.323,2.323,0,0,1,2.384-2.416c.392-.005.784,0,1.176,0h.994a6.033,6.033,0,0,1,.009-.845,1.586,1.586,0,0,1,.236-.65C767.744,284.175,767.948,284.1,768.1,284Zm-.7,3.659h-2.044c-.524,0-.665.144-.665.675v16.761c0,.532.137.67.669.67h13.166c.539,0,.681-.142.681-.683V288.343a1.838,1.838,0,0,0,0-.208.454.454,0,0,0-.471-.468c-.729-.012-1.459,0-2.189,0-.011,0-.023.018-.046.038,0,.236,0,.481,0,.727a.944.944,0,0,1-1.038,1.047q-3.516,0-7.033,0a.934.934,0,0,1-1.026-1.033C767.4,288.2,767.4,287.944,767.4,287.659Zm1.858-1.807v1.773h5.378v-1.773Z" transform="translate(-762.84 -284)" fill="#3992c5"/>
  <path id="Path_934" data-name="Path 934" d="M865.018,516.248c.091-.113.138-.185.2-.244q1.955-1.958,3.911-3.915a.947.947,0,0,1,1.044-.289.911.911,0,0,1,.418,1.419,2.653,2.653,0,0,1-.219.237L865.8,518.02a.964.964,0,0,1-1.587,0q-1.1-1.1-2.2-2.2a.935.935,0,0,1-.253-1.091.924.924,0,0,1,1.52-.248c.518.5,1.024,1.019,1.534,1.531C864.877,516.068,864.926,516.138,865.018,516.248Z" transform="translate(-857.124 -501.242)" fill="#3992c5"/>
</svg>
