<?xml version="1.0" encoding="utf-8"?>
<!-- Generator: Adobe Illustrator 16.0.0, SVG Export Plug-In . SVG Version: 6.00 Build 0)  -->
<!DOCTYPE svg PUBLIC "-//W3C//DTD SVG 1.1//EN" "http://www.w3.org/Graphics/SVG/1.1/DTD/svg11.dtd">
<svg version="1.1" id="Layer_1" xmlns="http://www.w3.org/2000/svg" xmlns:xlink="http://www.w3.org/1999/xlink" x="0px" y="0px"
	 width="16.898px" height="16.898px" viewBox="0 0 16.898 16.898" enable-background="new 0 0 16.898 16.898" xml:space="preserve">
<g id="user" transform="translate(0.493 0.5)">
	<g id="Group_21" transform="translate(1.001)">
		<g id="Group_20">
			<g id="Ellipse_4">
				<path fill="#333333" d="M1.987,4.474C0.616,4.474-0.5,3.359-0.5,1.987S0.616-0.5,1.987-0.5c1.371,0,2.486,1.116,2.486,2.487
					S3.358,4.474,1.987,4.474z M1.987,0.5C1.167,0.5,0.5,1.167,0.5,1.987s0.667,1.487,1.487,1.487c0.819,0,1.486-0.667,1.486-1.487
					S2.807,0.5,1.987,0.5z"/>
			</g>
		</g>
	</g>
	<g id="Group_23" transform="translate(0.008 4.968)">
		<g id="Group_22" transform="translate(0)">
			<g id="Path_11">
				<path fill="#333333" d="M3.527,11.429h-1.09c-0.771,0-1.411-0.578-1.488-1.345L0.587,6.461L0.383,6.454
					C0.142,6.432-0.099,6.305-0.269,6.1C-0.44,5.895-0.521,5.635-0.496,5.369l0.453-4.524C0.031,0.078,0.67-0.5,1.441-0.5h0.546
					c0.264,0,0.511,0.1,0.699,0.282L2.98,0.075l0.289-0.288c0.188-0.186,0.445-0.292,0.706-0.292h0.543
					c0.778,0,1.417,0.583,1.486,1.355l0.453,4.515c0.007,0.357-0.095,0.609-0.283,0.799C5.986,6.354,5.735,6.46,5.468,6.461H5.373
					l-0.361,3.623C4.935,10.851,4.297,11.429,3.527,11.429z M1.04,5.461h0.453l0.452,4.523c0.025,0.253,0.236,0.444,0.491,0.444
					h1.092c0.254,0,0.464-0.191,0.49-0.444l0.451-4.523h0.997L5.008,0.945c-0.023-0.259-0.233-0.45-0.489-0.45H3.974L2.981,1.489
					L1.984,0.494L1.443,0.5c-0.255,0-0.467,0.19-0.492,0.443L0.499,5.464L1.04,5.461z"/>
			</g>
		</g>
	</g>
	<g id="Group_25" transform="translate(5.85 1.73)">
		<g id="Group_24">
			<g id="Path_12">
				<path fill="#333333" d="M2.224,11.941c-0.174,0-0.345-0.046-0.495-0.131l-1.73-0.995c-0.206-0.122-0.358-0.308-0.435-0.526
					l-0.177-0.504l0.514-0.144c0.176-0.05,0.335-0.146,0.458-0.279c0.18-0.201,0.271-0.48,0.245-0.759L0.152,4.085
					c-0.023-0.197-0.09-0.391-0.199-0.57l-0.159-0.262l0.161-0.261c0.043-0.069,0.088-0.138,0.135-0.206l-0.46-0.801
					c-0.27-0.477-0.105-1.085,0.366-1.359l1.732-0.996c0.468-0.265,1.095-0.09,1.36,0.366l0.451,0.785
					c0.366-0.042,0.74-0.041,1.108,0L5.096,0C5.362-0.457,5.994-0.632,6.455-0.37l1.732,0.996c0.474,0.276,0.638,0.884,0.368,1.358
					L8.1,2.776c0.218,0.297,0.401,0.617,0.548,0.956h0.91c0.548,0,0.996,0.446,1,0.994v1.983c0,0.552-0.448,1-1,1H8.649
					C8.501,8.047,8.318,8.367,8.098,8.664l0.453,0.788c0.271,0.475,0.107,1.085-0.364,1.359l-1.732,0.996
					c-0.47,0.268-1.095,0.089-1.36-0.366l-0.45-0.784c-0.367,0.041-0.739,0.041-1.108,0L3.086,11.44
					c-0.128,0.227-0.349,0.397-0.604,0.466C2.402,11.929,2.313,11.941,2.224,11.941z M5.165,9.556l0.796,1.386l1.726-0.995
					L6.884,8.561l0.231-0.269c0.317-0.368,0.56-0.788,0.719-1.248l0.117-0.336h1.606V4.729L7.953,4.732L7.835,4.397
					c-0.161-0.46-0.403-0.882-0.719-1.253L6.888,2.875l0.799-1.388L5.959,0.498L5.167,1.885L4.817,1.819
					C4.58,1.773,4.335,1.751,4.093,1.751l0,0c-0.243,0-0.486,0.022-0.726,0.068L3.019,1.885L2.221,0.497L0.496,1.492l0.791,1.37
					L1.079,3.128C1.038,3.18,0.998,3.233,0.959,3.287c0.097,0.22,0.159,0.451,0.187,0.691L1.6,8.505
					c0.053,0.558-0.129,1.114-0.501,1.529c-0.054,0.059-0.11,0.113-0.17,0.164l1.292,0.74l0.795-1.383l0.349,0.065
					c0.477,0.089,0.973,0.09,1.451,0L5.165,9.556z M4.093,8.21c-1.371,0-2.487-1.116-2.487-2.487c0-1.372,1.116-2.487,2.487-2.487
					S6.58,4.351,6.58,5.723C6.579,7.093,5.463,8.209,4.093,8.21z M4.093,4.236c-0.82,0-1.487,0.667-1.487,1.487
					S3.273,7.21,4.093,7.21C4.912,7.209,5.579,6.542,5.58,5.722C5.58,4.903,4.913,4.236,4.093,4.236z"/>
			</g>
		</g>
	</g>
</g>
</svg>
