<svg xmlns="http://www.w3.org/2000/svg" width="49.858" height="24.4" viewBox="0 0 49.858 24.4">
  <g id="Group_8850" data-name="Group 8850" transform="translate(-407.492 -214)">
    <g id="users" transform="translate(420 214)">
      <g id="Group_8619" data-name="Group 8619" transform="translate(0)">
        <path id="Path_865" data-name="Path 865" d="M20.827,15.773a12.153,12.153,0,0,0-4.636-2.908,7.053,7.053,0,1,0-7.981,0A12.219,12.219,0,0,0,0,24.4H1.906a10.294,10.294,0,0,1,20.587,0H24.4A12.12,12.12,0,0,0,20.827,15.773ZM12.2,12.2a5.147,5.147,0,1,1,5.147-5.147A5.153,5.153,0,0,1,12.2,12.2Z" transform="translate(0)" fill="#fff"/>
      </g>
    </g>
    <g id="users-2" data-name="users" transform="translate(442.492 220.27)">
      <g id="Group_8619-2" data-name="Group 8619" transform="translate(0)">
        <path id="Path_865-2" data-name="Path 865" d="M12.682,9.6A7.4,7.4,0,0,0,9.859,7.834a4.295,4.295,0,1,0-4.86,0,7.441,7.441,0,0,0-5,7.024H1.161a6.268,6.268,0,1,1,12.537,0h1.161A7.381,7.381,0,0,0,12.682,9.6ZM7.429,7.429a3.134,3.134,0,1,1,3.134-3.134A3.138,3.138,0,0,1,7.429,7.429Z" transform="translate(0)" fill="#fff"/>
      </g>
    </g>
    <g id="users-3" data-name="users" transform="translate(407.492 220.27)">
      <g id="Group_8619-3" data-name="Group 8619" transform="translate(0)">
        <path id="Path_865-3" data-name="Path 865" d="M12.682,9.6A7.4,7.4,0,0,0,9.859,7.834a4.295,4.295,0,1,0-4.86,0,7.441,7.441,0,0,0-5,7.024H1.161a6.268,6.268,0,1,1,12.537,0h1.161A7.381,7.381,0,0,0,12.682,9.6ZM7.429,7.429a3.134,3.134,0,1,1,3.134-3.134A3.138,3.138,0,0,1,7.429,7.429Z" transform="translate(0)" fill="#fff"/>
      </g>
    </g>
  </g>
</svg>
