<svg xmlns="http://www.w3.org/2000/svg" width="15" height="16" viewBox="0 0 15 16">
  <g id="single-02" transform="translate(0 -0.429)">
    <path id="Union_10" data-name="Union 10" d="M0,16a6.244,6.244,0,0,1,6.428-6H8.571A6.244,6.244,0,0,1,15,16Zm2.785-2h9.536a4.387,4.387,0,0,0-3.75-2H6.535A4.39,4.39,0,0,0,2.785,14Zm.429-9V4A4.162,4.162,0,0,1,7.5,0a4.163,4.163,0,0,1,4.286,4V5A4.163,4.163,0,0,1,7.5,9,4.163,4.163,0,0,1,3.214,5ZM5.357,4V5A2.081,2.081,0,0,0,7.5,7,2.082,2.082,0,0,0,9.643,5V4A2.081,2.081,0,0,0,7.5,2,2.081,2.081,0,0,0,5.357,4Z" transform="translate(0 0.429)" fill="#333"/>
  </g>
</svg>
