<?xml version="1.0" encoding="utf-8"?>
<!-- Generator: Adobe Illustrator 16.0.0, SVG Export Plug-In . SVG Version: 6.00 Build 0)  -->
<!DOCTYPE svg PUBLIC "-//W3C//DTD SVG 1.1//EN" "http://www.w3.org/Graphics/SVG/1.1/DTD/svg11.dtd">
<svg version="1.1" id="Layer_1" xmlns="http://www.w3.org/2000/svg" xmlns:xlink="http://www.w3.org/1999/xlink" x="0px" y="0px"
	 width="15.686px" height="12.018px" viewBox="0 0 15.686 12.018" enable-background="new 0 0 15.686 12.018" xml:space="preserve">
<g id="masters" transform="translate(145.011 82.536)">
	<g id="Path_1152">
		<path fill="#333333" d="M-129.302-70.534h-13.009c-0.143,0-0.383,0-0.551-0.214s-0.113-0.447-0.08-0.586
			c0.129-0.592,0.334-1.175,0.607-1.724c0.228-0.45,0.573-0.825,0.999-1.089c0.901-0.534,1.829-1.017,2.765-1.436l0.098-0.044
			l0.167-0.017c0.132,0,0.375,0.046,0.523,0.35l0.508,0.967c0.011-0.011,0.022-0.021,0.034-0.031
			c0.216-0.211,0.426-0.425,0.636-0.643l0.147-0.152l0.285-0.044c0.16,0,0.305,0.065,0.431,0.193
			c0.221,0.229,0.439,0.449,0.662,0.668c0.17-0.313,0.339-0.626,0.506-0.939c0.171-0.313,0.417-0.358,0.549-0.358h0.118l0.198,0.082
			c0.463,0.217,0.929,0.454,1.395,0.691l0.782,0.395c1.053,0.514,1.819,1.509,2.05,2.661l0.057,0.216
			c0.029,0.111,0.059,0.222,0.084,0.333L-129.302-70.534z M-136.657-71.534h6.212l-0.014-0.054
			c-0.175-0.868-0.739-1.601-1.516-1.979l-0.795-0.401c-0.358-0.183-0.718-0.365-1.08-0.541c-0.309,0.573-0.621,1.146-0.934,1.719
			l-0.236,0.435c-0.094,0.194-0.228,0.312-0.403,0.362l-0.458,0.13l-0.152-0.451c-0.055-0.161-0.1-0.297-0.146-0.428
			L-136.657-71.534z M-141.86-71.534h4.932l-1.576-2.979c-0.788,0.367-1.563,0.777-2.314,1.223
			c-0.262,0.162-0.479,0.399-0.623,0.682C-141.612-72.267-141.752-71.906-141.86-71.534z M-136.377-73.806
			c0.076,0.147,0.14,0.278,0.203,0.41c0.006-0.012,0.012-0.022,0.018-0.034l0.188-0.378c-0.07-0.069-0.138-0.138-0.204-0.204
			C-136.241-73.943-136.309-73.874-136.377-73.806z"/>
	</g>
	<g id="Path_1153">
		<path fill="#333333" d="M-136.147-75.35h-0.015c-1.961-0.002-3.555-1.599-3.554-3.56c0.004-1.972,1.6-3.563,3.557-3.563
			c0.973,0.003,1.864,0.376,2.533,1.05c0.67,0.674,1.036,1.568,1.033,2.518C-132.591-76.947-134.186-75.351-136.147-75.35z
			 M-136.139-81.473c-1.426,0-2.573,1.144-2.576,2.55c-0.001,1.423,1.145,2.572,2.555,2.573l0.014,0.5v-0.5
			c1.409-0.001,2.556-1.148,2.555-2.557c0.002-0.685-0.261-1.327-0.742-1.812C-134.815-81.202-135.457-81.47-136.139-81.473z"/>
	</g>
	<g id="Path_1154">
		<path fill="#333333" d="M-138.222-75.357c-1.108,0-2.163-0.532-2.82-1.424c-0.995-1.325-0.946-3.143,0.119-4.417
			c0.844-1.028,2.25-1.495,3.552-1.164l1.87,0.475l-1.865,0.493c-1.076,0.284-1.835,1.26-1.848,2.372
			c-0.073,1.208,0.705,2.288,1.848,2.594l1.87,0.5l-1.878,0.468C-137.652-75.391-137.937-75.357-138.222-75.357z M-139.479-81.134
			c-0.254,0.147-0.483,0.341-0.674,0.574c-0.77,0.92-0.804,2.228-0.087,3.183c0.207,0.28,0.467,0.511,0.761,0.681
			c-0.509-0.655-0.787-1.489-0.734-2.361C-140.206-79.825-139.935-80.551-139.479-81.134z"/>
	</g>
	<g id="Path_1155">
		<path fill="#333333" d="M-143.755-70.539h-0.899l-0.236-0.207c-0.076-0.095-0.156-0.258-0.102-0.501
			c0.129-0.618,0.338-1.226,0.621-1.8c0.232-0.463,0.584-0.846,1.019-1.111c0.884-0.526,1.808-1.007,2.75-1.43l0.098-0.044
			l0.168-0.018c0.225,0,0.42,0.13,0.523,0.348c0.056,0.114,0.116,0.234,0.184,0.349l0.113,0.189l-0.038,0.306
			c-0.049,0.161-0.162,0.286-0.336,0.37c-0.199,0.097-0.395,0.204-0.59,0.311c-0.18,0.098-0.359,0.195-0.542,0.287
			c-0.552,0.279-0.973,0.781-1.154,1.374c-0.132,0.363-0.232,0.711-0.307,1.059c-0.057,0.313-0.298,0.516-0.625,0.516
			L-143.755-70.539z M-143.889-71.539l0.491-0.002c0.076-0.306,0.167-0.603,0.272-0.893c0.109-0.359,0.286-0.699,0.516-1.002
			c-0.076,0.044-0.152,0.089-0.227,0.134c-0.271,0.165-0.494,0.408-0.64,0.7C-143.644-72.261-143.782-71.905-143.889-71.539z"/>
	</g>
</g>
</svg>
