<svg xmlns="http://www.w3.org/2000/svg" width="42.364" height="26.908" viewBox="0 0 42.364 26.908">
  <g id="queue_1_" data-name="queue(1)" transform="translate(-105.99 -299.623)">
    <path id="Path_970" data-name="Path 970" d="M105.991,324.242c.124-.7.2-1.417.379-2.1a13.365,13.365,0,0,1,8.172-9.384l.232-.1a7.3,7.3,0,0,1-2.635-6.445,7.1,7.1,0,0,1,2.56-4.847,7.384,7.384,0,0,1,10.595,1.129,5.956,5.956,0,0,1,9.863-.462,5.085,5.085,0,0,1,4.2-2.4,4.945,4.945,0,0,1,3.33,1.138,5.1,5.1,0,0,1,.576,7.326,9.017,9.017,0,0,1,3.148,2.5,8.782,8.782,0,0,1,1.945,5.421,1.246,1.246,0,0,1-1.33,1.355c-1.93.005-3.861,0-5.792,0h-.448c.062.675.141,1.314.175,1.956a1.254,1.254,0,0,1-1.388,1.453q-3.476,0-6.95,0h-.432c.192.885.41,1.737.553,2.6a13.366,13.366,0,0,1,.139,1.894,1.2,1.2,0,0,1-1.139,1.24,3.963,3.963,0,0,1-.413.011q-11.873,0-23.744.009a1.489,1.489,0,0,1-1.594-.965Q105.992,324.9,105.991,324.242Zm24.312-.219a10.911,10.911,0,0,0-21.688,0ZM124.3,306.964a4.855,4.855,0,1,0-4.865,4.865A4.863,4.863,0,0,0,124.3,306.964Zm1.067,6.2a1.6,1.6,0,0,0,.175.128,13.66,13.66,0,0,1,5.268,4.773.632.632,0,0,0,.467.214c2.232.013,4.465.01,6.7.009.122,0,.243-.011.427-.02a8.145,8.145,0,0,0-13.032-5.105Zm5.034-4.219a3.423,3.423,0,0,0-.009-6.846,3.423,3.423,0,1,0,.009,6.846Zm5.746,1.721A10.947,10.947,0,0,1,139.8,314.7a.534.534,0,0,0,.4.176c1.1.014,2.205.008,3.308.008h2.244a6.412,6.412,0,0,0-9.61-4.214Zm.778-5.988a2.57,2.57,0,1,0,2.568-2.579A2.576,2.576,0,0,0,136.922,304.682Z" fill="#fff"/>
  </g>
</svg>
