<?xml version="1.0" encoding="utf-8"?>
<!-- Generator: Adobe Illustrator 16.0.0, SVG Export Plug-In . SVG Version: 6.00 Build 0)  -->
<!DOCTYPE svg PUBLIC "-//W3C//DTD SVG 1.1//EN" "http://www.w3.org/Graphics/SVG/1.1/DTD/svg11.dtd">
<svg version="1.1" id="Layer_1" xmlns="http://www.w3.org/2000/svg" xmlns:xlink="http://www.w3.org/1999/xlink" x="0px" y="0px"
	 width="18.001px" height="21.731px" viewBox="0.25 0.251 18.001 21.731" enable-background="new 0.25 0.251 18.001 21.731"
	 xml:space="preserve">
<g id="Group_9309">
	<g id="Path_1183">
		<path fill="#9A9DA1" d="M9.25,9.421c2.532,0,4.585-2.053,4.585-4.585S11.782,0.251,9.25,0.251c-2.532,0-4.584,2.052-4.585,4.584
			C4.665,7.367,6.718,9.42,9.25,9.421C9.25,9.42,9.25,9.42,9.25,9.421L9.25,9.421z M9.25,0.929c2.157,0,3.905,1.749,3.905,3.906
			S11.407,8.741,9.25,8.741S5.344,6.992,5.344,4.835l0,0C5.344,2.678,7.093,0.929,9.25,0.929z"/>
	</g>
	<path fill="#9A9DA1" d="M0.929,16.894l0.6-4.88c0.078-0.613,0.558-1.098,1.17-1.181l3.437-0.471l1.426,1.846
		c0.099-0.214,0.254-0.396,0.45-0.528l-1.241-1.606c0.13-0.126,0.225-0.284,0.274-0.458C6.832,9.516,6.626,9.403,6.428,9.277
		l-0.03,0.138C6.367,9.555,6.252,9.661,6.11,9.68l-3.5,0.48c-0.918,0.123-1.639,0.848-1.756,1.766l-0.6,4.881
		c-0.042,0.377,0.231,0.717,0.608,0.758c0.022,0.002,0.045,0.004,0.068,0.004h2.715V16.89L0.929,16.894z"/>
	<path fill="#9A9DA1" d="M18.246,16.811l-0.601-4.88c-0.114-0.918-0.832-1.645-1.748-1.771l-3.5-0.48
		c-0.143-0.02-0.258-0.125-0.289-0.265l-0.029-0.138c-0.197,0.126-0.404,0.239-0.617,0.338c0.049,0.174,0.145,0.332,0.273,0.458
		l-1.24,1.606c0.195,0.132,0.352,0.314,0.449,0.528l1.427-1.846l3.437,0.471c0.613,0.083,1.094,0.568,1.17,1.181l0.601,4.88h-2.724
		v0.679h2.717c0.379-0.004,0.684-0.314,0.68-0.693C18.251,16.856,18.249,16.833,18.246,16.811L18.246,16.811z"/>
	<path fill="#9A9DA1" d="M13.573,15.938h-0.34c-0.088-0.313-0.213-0.612-0.371-0.895l0.24-0.242
		c0.235-0.232,0.236-0.613,0.003-0.848c-0.001-0.001-0.001-0.002-0.003-0.002l-0.74-0.742c-0.238-0.227-0.613-0.227-0.852,0
		l-0.24,0.242c-0.283-0.159-0.583-0.283-0.895-0.371v-0.343c0-0.331-0.269-0.6-0.6-0.6H8.725c-0.332,0-0.6,0.269-0.6,0.6v0.341
		c-0.312,0.088-0.612,0.212-0.894,0.371L6.99,13.208c-0.238-0.227-0.613-0.227-0.851,0L5.398,13.95
		c-0.235,0.232-0.236,0.613-0.002,0.848c0.001,0.001,0.001,0.002,0.002,0.002l0.241,0.242c-0.159,0.282-0.283,0.582-0.371,0.895
		H4.925c-0.331,0-0.6,0.269-0.6,0.6v1.049c0,0.331,0.269,0.6,0.6,0.6h0.34c0.087,0.313,0.212,0.612,0.371,0.895L5.395,19.32
		c-0.235,0.233-0.236,0.614-0.002,0.849c0.001,0.001,0.001,0.002,0.002,0.002l0.741,0.742c0.238,0.227,0.613,0.227,0.851,0
		l0.241-0.242c0.282,0.159,0.583,0.283,0.894,0.371v0.34c0,0.332,0.269,0.601,0.6,0.601h1.048c0.331,0,0.6-0.269,0.6-0.601v-0.34
		c0.312-0.088,0.611-0.212,0.895-0.371l0.24,0.242c0.238,0.227,0.613,0.227,0.852,0l0.74-0.742c0.235-0.232,0.236-0.613,0.003-0.848
		c-0.001-0.001-0.002-0.002-0.003-0.003l-0.24-0.241c0.158-0.282,0.283-0.582,0.371-0.895h0.34c0.331,0,0.6-0.269,0.6-0.6v-1.047
		C14.167,16.209,13.901,15.942,13.573,15.938z M13.495,17.51h-0.528c-0.16,0-0.299,0.113-0.332,0.27
		c-0.087,0.418-0.253,0.814-0.485,1.172c-0.088,0.134-0.07,0.312,0.043,0.426l0.375,0.373l-0.631,0.631l-0.375-0.373
		c-0.113-0.114-0.291-0.133-0.426-0.045c-0.355,0.234-0.753,0.398-1.17,0.486c-0.156,0.033-0.27,0.172-0.27,0.332v0.528H8.803
		v-0.528c0-0.16-0.113-0.299-0.27-0.332c-0.417-0.088-0.814-0.252-1.17-0.486c-0.134-0.088-0.312-0.069-0.426,0.045l-0.374,0.373
		L5.932,19.75l0.374-0.373c0.113-0.114,0.132-0.292,0.044-0.426c-0.233-0.357-0.398-0.754-0.486-1.172
		c-0.033-0.156-0.171-0.27-0.332-0.27H5.004v-0.893h0.528c0.16-0.001,0.299-0.113,0.332-0.271c0.088-0.417,0.253-0.814,0.486-1.171
		c0.088-0.135,0.069-0.313-0.044-0.426l-0.374-0.375l0.631-0.631l0.374,0.375c0.114,0.113,0.292,0.131,0.426,0.043
		c0.356-0.232,0.753-0.398,1.17-0.486c0.157-0.032,0.27-0.171,0.27-0.331v-0.528h0.893v0.528c0,0.16,0.114,0.299,0.27,0.331
		c0.417,0.088,0.814,0.254,1.17,0.486c0.135,0.088,0.313,0.07,0.426-0.043l0.375-0.375l0.631,0.631l-0.375,0.375
		c-0.113,0.113-0.131,0.291-0.043,0.426c0.232,0.356,0.398,0.754,0.485,1.171c0.033,0.157,0.172,0.27,0.332,0.271h0.528V17.51z"/>
	<path fill="#9A9DA1" d="M9.25,14.686c-1.313,0-2.378,1.064-2.378,2.378s1.064,2.378,2.378,2.378s2.378-1.064,2.378-2.378l0,0
		C11.628,15.75,10.563,14.686,9.25,14.686z M9.25,18.762c-0.939,0-1.7-0.762-1.7-1.7s0.761-1.7,1.7-1.7c0.938,0,1.7,0.762,1.7,1.7
		l0,0C10.95,18,10.188,18.762,9.25,18.762z"/>
</g>
</svg>
