<?xml version="1.0" encoding="utf-8"?>
<!-- Generator: Adobe Illustrator 16.0.0, SVG Export Plug-In . SVG Version: 6.00 Build 0)  -->
<!DOCTYPE svg PUBLIC "-//W3C//DTD SVG 1.1//EN" "http://www.w3.org/Graphics/SVG/1.1/DTD/svg11.dtd">
<svg version="1.1" id="Layer_1" xmlns="http://www.w3.org/2000/svg" xmlns:xlink="http://www.w3.org/1999/xlink" x="0px" y="0px"
	 width="23px" height="24px" viewBox="0 0 23 24" enable-background="new 0 0 23 24" xml:space="preserve">
<g id="single-02" transform="translate(0.999 0.998)">
	<g id="Union_10">
		<path fill="#333333" d="M22.001,23.002h-23v-1c0-4.665,3.752-8.534,8.612-9.161c-2.322-0.989-3.982-3.238-4.111-5.916L3.501,5.502
			c0.18-3.759,3.296-6.665,7.039-6.499c0.012-0.004,0.101-0.005,0.189-0.005c3.623,0,6.598,2.836,6.771,6.457l0.001,1.423
			c-0.132,2.759-1.847,5.047-4.23,6.012c2.381,0.469,5.031,1.979,5.162,2.055l0.163,0.094l0.118,0.146
			c0.336,0.418,3.287,4.16,3.287,6.818V23.002z M1.077,21.002h18.739c-0.458-1.432-1.666-3.296-2.542-4.416
			c-1.063-0.587-3.658-1.834-5.272-1.834h-3C4.964,14.752,1.616,17.476,1.077,21.002z M10.462,11.378l0.267,0.003
			c2.554,0,4.651-2,4.773-4.552l-0.001-1.327c-0.121-2.505-2.219-4.504-4.772-4.504L10.54,1.001l-0.266-0.003
			c-2.554,0-4.65,2-4.773,4.553l0.001,1.327c0.122,2.505,2.219,4.504,4.772,4.504L10.462,11.378z"/>
	</g>
</g>
</svg>
