<svg xmlns="http://www.w3.org/2000/svg" width="32" height="20.164" viewBox="0 0 32 20.164">
  <path id="video-camera" d="M31.668,1.8A.679.679,0,0,0,31,1.786L23.655,5.8V3.39A3.394,3.394,0,0,0,20.265,0H3.39A3.394,3.394,0,0,0,0,3.39V16.774a3.394,3.394,0,0,0,3.39,3.39H20.265a3.394,3.394,0,0,0,3.39-3.39V14.412L31,18.421a.678.678,0,0,0,1-.6V2.381a.678.678,0,0,0-.332-.583ZM22.3,16.774a2.036,2.036,0,0,1-2.034,2.034H3.39a2.036,2.036,0,0,1-2.034-2.034V3.39A2.036,2.036,0,0,1,3.39,1.356H20.265A2.036,2.036,0,0,1,22.3,3.39Zm8.346-.091-6.989-3.816V7.34l6.989-3.816Zm0,0" transform="translate(-0.001 0)"/>
</svg>
