<svg xmlns="http://www.w3.org/2000/svg" width="84.047" height="113.236" viewBox="0 0 84.047 113.236">
  <g id="wire-transfer" transform="translate(-816.309 -349.693)">
    <path id="Path_1266" data-name="Path 1266" d="M890.253,419.123h10.058v43.806H816.384v-43.8h10.095c-8.729-10.773-11.983-22.79-9.2-36.219a40.826,40.826,0,0,1,15.73-24.656,42.014,42.014,0,0,1,57.245,60.866Zm-64.8,18.16v7.6a11.089,11.089,0,0,1,8.985,8.948h47.847a11.129,11.129,0,0,1,3.066-5.885,11.4,11.4,0,0,1,5.857-3.063v-7.624a11.076,11.076,0,0,1-8.935-8.883H860.23v1.888c6.61,1.5,9.611,7.054,9.015,12a10.954,10.954,0,0,1-21.76.2c-.632-4.17,1.459-10.348,8.972-12.214v-1.888H834.442A11.165,11.165,0,0,1,825.454,437.283Zm5.453,20.184c.219-2.7-.247-5.058-2.144-6.967-1.925-1.934-4.37-2.242-6.9-2.144v-14.62c2.6.213,4.984-.213,6.89-2.088,1.943-1.912,2.378-4.327,2.159-7.035h25.538v-1.727h-36.41v36.389h76.614V422.849h-36.4v1.814H885.8c-.219,2.683.228,5.049,2.125,6.955,1.922,1.934,4.355,2.295,6.893,2.144v14.663a8.113,8.113,0,0,0-6.921,2.125c-1.94,1.918-2.264,4.364-2.141,6.918Zm25.56-47.48V393.425H837.332a58.944,58.944,0,0,0,3.862,20.224A41.409,41.409,0,0,1,856.467,409.987Zm19.061,3.846a60.172,60.172,0,0,0,3.837-20.2H860.279v16.56A41.8,41.8,0,0,1,875.528,413.833Zm-19.073-24V373.444a50.118,50.118,0,0,1-15.283-3.636,58.574,58.574,0,0,0-3.834,20.03Zm3.809-16.381v16.381h19.107a58.919,58.919,0,0,0-3.855-20.039A41.434,41.434,0,0,1,860.264,373.457Zm22.852,20.153a2.3,2.3,0,0,0-.089.382,66,66,0,0,1-3.923,20.859,1.2,1.2,0,0,0,.422,1.027c1.357.975,2.8,1.832,4.151,2.81a1.424,1.424,0,0,0,2.168-.151,35.774,35.774,0,0,0,9.46-16.143c.762-2.831,1.12-5.774,1.681-8.784Zm-51.354-29.6a38.917,38.917,0,0,0-11.8,25.819h13.7a64.729,64.729,0,0,1,4.164-21.735C835.765,366.705,833.819,365.4,831.762,364.013Zm53.241.025c-1.641,1.1-3.174,2.242-4.815,3.189-.938.543-1.144.981-.746,2.029a54.532,54.532,0,0,1,3.158,13.158c.281,2.449.478,4.907.716,7.381H896.7C896.283,380.242,891.675,370.079,885,364.037ZM820.035,393.61a3.817,3.817,0,0,0-.031.49,38.661,38.661,0,0,0,11,24.557c.62.638,1.12.552,1.773.077a45.723,45.723,0,0,1,3.877-2.6c.811-.466,1.009-.845.657-1.761a54.478,54.478,0,0,1-3.2-13.256c-.284-2.483-.481-4.975-.722-7.5Zm45.626,47.418a7.307,7.307,0,1,0-7.322,7.353A7.341,7.341,0,0,0,865.662,441.028Zm-9.21-71.241V353.412c-6.415.864-11.942,7.816-13.707,13.108A35.854,35.854,0,0,0,856.452,369.786Zm3.772-.006a46.133,46.133,0,0,0,13.91-3.251c-2.258-6.252-9.487-12.914-13.91-12.84ZM873.983,417.1a36.8,36.8,0,0,0-13.738-3.433v5.475h10.989C873.221,419.138,873.221,419.138,873.983,417.1Zm-17.5-3.442a40.313,40.313,0,0,0-13.775,3.476c.783,2.008.783,2.008,2.708,2.008h11.067Zm-17.362-48.892c2-3.066,3.911-5.984,5.854-8.954a37.482,37.482,0,0,0-10.462,5.9C836.172,362.813,837.684,363.812,839.121,364.765Zm38.517-.015,4.438-2.921a32.888,32.888,0,0,0-10.48-6.018C873.594,358.766,875.578,361.7,877.638,364.75Z" fill="#3796d2"/>
    <path id="Path_1267" data-name="Path 1267" d="M869.255,628.19a5.481,5.481,0,1,1-5.505,5.481A5.4,5.4,0,0,1,869.255,628.19Zm1.8,5.521a1.822,1.822,0,1,0-1.922,1.78A1.741,1.741,0,0,0,871.051,633.711Z" transform="translate(-32.808 -192.6)" fill="#3796d2"/>
    <path id="Path_1268" data-name="Path 1268" d="M1016.929,633.833a5.481,5.481,0,1,1-5.351-5.635A5.4,5.4,0,0,1,1016.929,633.833Zm-5.481,1.662a1.82,1.82,0,1,0-1.817-1.881A1.736,1.736,0,0,0,1011.448,635.5Z" transform="translate(-131.164 -192.605)" fill="#3796d2"/>
  </g>
</svg>
